<?xml version="1.0" encoding="UTF-8" standalone="no"?>
<svg width="156px" height="156px" viewBox="0 0 156 156" version="1.1" xmlns="http://www.w3.org/2000/svg" xmlns:xlink="http://www.w3.org/1999/xlink" xmlns:sketch="http://www.bohemiancoding.com/sketch/ns">
    <!-- Generator: Sketch 3.4.2 (15857) - http://www.bohemiancoding.com/sketch -->
    <title>Page 1</title>
    <desc>Created with Sketch.</desc>
    <defs>
        <path id="path-1" d="M0,0.00591724138 L155.988434,0.00591724138 L155.988434,156 L0,156"></path>
    </defs>
    <g id="Welcome" stroke="none" stroke-width="1" fill="none" fill-rule="evenodd" sketch:type="MSPage">
        <g id="Desktop-HD-Copy" sketch:type="MSArtboardGroup" transform="translate(-234.000000, -40.000000)">
            <g id="Page-1" sketch:type="MSLayerGroup" transform="translate(234.000000, 40.000000)">
                <path d="M77.9942172,156 C64.4273276,156 51.0659276,152.463103 39.3549,145.770972 C28.2299483,139.413972 18.7645138,130.339076 11.9379,119.49331 L12.6043966,118.139876 L13.8042517,117.401834 C20.4253759,128.16691 29.7219,137.169186 40.6892379,143.435814 C51.9946655,149.895828 64.8945207,153.310345 77.9942172,153.310345 C90.0809897,153.310345 101.624183,150.534083 112.303459,145.058483 C121.456893,140.365303 129.663569,133.735303 136.217452,125.765586 L140.077107,125.222276 C133.023217,134.479531 123.859024,142.156076 113.530479,147.452007 C102.467928,153.123952 90.5118724,156 77.9942172,156" id="Fill-1" fill="#FFFFFF" sketch:type="MSShapeGroup"></path>
                <path d="M106.549748,73.5889924 C106.346679,73.6180407 106.132583,73.670489 105.920638,73.7433786 C104.987597,74.0629097 104.203024,74.7261786 103.494031,75.3950959 C101.690079,77.0960338 100.271286,79.1062821 99.2368448,80.6681648 C97.3113207,83.5743372 95.4958034,86.8449579 93.7122931,90.6255372 C95.9759069,88.1029097 98.2951966,85.5116959 100.534334,82.9242476 C102.159424,81.0463303 103.67881,78.9954683 105.1479,77.0126545 L105.321652,76.7781166 C106.038445,75.8111855 106.443238,74.8587786 106.558893,73.8668338 C106.572879,73.74822 106.564003,73.65462 106.549748,73.5889924 M110.8419,100.467523 C110.821997,100.467523 110.801824,100.468061 110.781383,100.469675 C110.202031,100.504372 109.716817,100.664137 109.298038,100.957041 C107.742072,102.046082 106.782672,103.558475 106.276748,105.765875 C107.937341,105.450648 109.262266,104.688937 110.30101,103.457613 C110.899459,102.74862 111.218452,101.951137 111.249921,101.088027 C111.258528,100.840579 111.212534,100.639392 111.126734,100.550634 C111.060569,100.481779 110.9355,100.467523 110.8419,100.467523 M61.826431,103.115758 C61.6499897,104.666882 61.7815138,105.999606 62.224231,107.188434 C62.6473138,108.324813 63.2099897,109.073882 63.9972517,109.523054 C65.0763414,107.194351 65.6010931,104.940689 65.5981345,102.659592 C65.5970586,101.841668 65.4628448,101.217668 65.1753207,100.695606 C64.8049552,100.02373 64.4154931,99.9234062 64.049431,99.9147993 L64.0488931,99.9147993 C63.8452862,99.9147993 63.6376448,99.9691303 63.4383414,100.065689 C63.9813828,100.014854 64.4370103,100.17973 64.7503552,100.514861 C65.0152862,100.79862 65.1460034,101.180013 65.118569,101.589648 L65.0642379,102.391703 L63.3931552,102.765834 C62.8632931,102.884986 62.3441897,103.001717 61.826431,103.115758 M59.0399483,104.564675 C56.2938103,106.567661 54.751831,109.84662 55.1103621,113.17722 C55.1870172,113.891592 55.4748103,114.458572 55.9659414,114.863634 C56.9404034,115.667303 57.989369,115.74073 59.2510862,115.127758 C60.7607897,114.395365 61.8210517,113.182868 62.6959966,111.874351 C61.9453138,111.438896 61.3234655,110.878372 60.8132379,110.180137 C59.6558793,108.597006 59.0716862,106.750827 59.0399483,104.564675 M57.6752172,118.234579 C57.1085069,118.234579 56.5348034,118.144744 55.9705138,117.967765 C54.3018517,117.445434 53.1409966,116.239392 52.6132862,114.479551 C52.5269483,114.191489 52.4626655,113.904234 52.4164034,113.618054 C51.5444172,114.773799 50.3730724,116.095496 48.7732655,117.04091 C47.3797552,117.865289 46.0825345,118.103592 44.7984931,117.785406 C43.363831,117.428758 42.4189552,116.275703 42.3318103,114.775682 C42.2347138,113.11482 42.5975483,111.406889 43.410631,109.699496 C44.0545345,108.347944 44.7581483,107.009303 45.4389,105.715579 C45.7850586,105.056882 46.1312172,104.398454 46.4709207,103.73653 C46.9717345,102.760186 47.490031,101.750489 47.6506034,100.666558 C47.6861069,100.425027 47.6624379,100.234868 47.5847069,100.144496 C47.4760448,100.018889 47.1756103,99.9489579 46.8310655,99.971551 C46.1113138,100.017275 45.4329828,100.337882 44.7433552,100.690765 C44.0878862,101.026434 43.418969,101.352689 42.7726448,101.667379 C42.5093276,101.796213 42.2462793,101.924241 41.9835,102.053075 C41.9154517,102.089117 41.7091552,102.196972 41.4202862,102.196972 L41.3395966,102.195358 C41.2879552,102.195358 41.2610586,102.201544 41.2546034,102.204234 C41.1776793,102.256682 41.0257138,102.572986 40.9348034,102.762068 L40.837169,102.963254 C40.1410862,104.371827 39.3928241,105.773944 38.6693069,107.130337 L38.2836103,107.853586 C38.1493966,108.106144 37.7408379,108.874848 36.8416862,108.874848 C36.5842862,108.874848 36.3255414,108.807068 36.0727138,108.673123 L35.1324103,108.175537 L38.426431,101.78142 C37.5805345,101.21202 37.0907483,100.322551 36.9923069,99.1557786 C36.9194172,98.2958959 37.1622931,97.5045993 37.6762862,96.9279372 C38.1407897,96.4066821 38.7914172,96.1073234 39.5079414,96.0852683 L39.5937414,96.0841924 C40.2747621,96.0841924 40.8705207,96.3327166 41.3159276,96.8023303 C41.8283069,97.342951 42.0932379,98.13882 42.0674172,99.0527648 C42.3993207,98.8962269 42.7285345,98.731351 43.0574793,98.5664752 C43.777769,98.2055234 44.5228034,97.8324683 45.3122172,97.5352614 C45.969031,97.288889 46.7869552,97.2146545 47.7060103,97.3130959 C48.6143069,97.4101924 49.385431,97.83462 49.8765621,98.5086476 C50.4198724,99.2534131 50.5955069,100.259613 50.3714586,101.341123 C50.0694103,102.797841 49.4152862,104.056061 48.7832172,105.27313 L48.7630448,105.311054 C48.4911207,105.83473 48.2157,106.357061 47.9405483,106.879123 C47.2251,108.236592 46.4854448,109.640323 45.8202931,111.038675 C45.2256103,112.289365 44.9770862,113.462592 45.0604655,114.623448 C45.0846724,114.957503 45.1726241,115.12453 45.6083483,115.171868 C46.4730724,115.267082 47.2275207,114.955351 48.2458241,114.090627 C49.8324517,112.742303 50.9779759,111.044323 52.2058034,109.125523 C52.5452379,108.595392 52.8766034,108.037558 53.1974793,107.497475 C53.5054448,106.97891 53.824169,106.442592 54.1568793,105.917841 C55.5025138,103.797048 57.2515966,102.199661 59.3557138,101.170868 C59.5246241,101.088565 59.5464103,101.054944 59.5937483,100.902979 C60.0222103,99.52722 60.7707414,98.4922407 61.8189,97.8278959 C62.4966931,97.3991648 63.2570586,97.1726959 64.0190379,97.1726959 C65.6911966,97.1726959 67.1914862,98.2568959 67.8415759,99.9355097 C68.4249621,101.441448 68.3797759,102.954917 68.2584724,104.236806 C68.082031,106.096434 67.6110724,107.956599 66.8536655,109.785296 C67.1255897,109.708641 67.372231,109.605089 67.6035414,109.47222 C68.2248517,109.115841 68.6785966,108.537027 69.2038862,107.867303 L69.4083,107.607751 C69.8988931,106.989399 70.164631,106.213972 70.445969,105.393089 C70.5696931,105.031599 70.6974517,104.658006 70.8488793,104.284682 C71.3873483,102.958682 71.9314655,101.634834 72.4753138,100.310986 L72.9266379,99.2125303 C72.9113069,99.2098407 72.8959759,99.2068821 72.8806448,99.2036545 C71.7469552,98.9766476 70.7899759,98.3085372 70.2563483,97.3698476 C69.7525759,96.4836062 69.6657,95.455889 70.0118586,94.4763166 C70.1837276,93.9908338 70.5064862,93.6277303 70.7472103,93.4087924 C70.9118172,93.2589786 71.1953069,93.084151 71.6224241,93.084151 C71.8561552,93.084151 72.0737483,93.1371372 72.2561069,93.1893166 L73.6872724,93.5978752 L72.8502517,94.8286614 C72.4882241,95.3609441 72.520231,95.6791303 72.6092586,95.9445993 C72.7023207,96.2235166 72.8577828,96.4836062 73.7190103,96.5933441 C73.8360103,96.6078683 73.9551621,96.6231993 74.0576379,96.6342269 C74.1014793,96.5433166 74.150969,96.4362683 74.197231,96.3354062 L74.7862655,95.0529786 C75.609031,93.2616683 76.459769,91.4093028 77.3110448,89.5919028 C77.5765138,89.028151 78.0628034,88.6924821 78.612569,88.6924821 C78.7817483,88.6924821 78.9495828,88.724489 79.1115,88.7879648 C79.4256517,88.9073855 79.6739069,89.1432683 79.8121552,89.4531166 C80.0485759,89.9837855 79.8686379,90.5147234 79.8078517,90.6650752 C79.4434034,91.5612683 79.0668517,92.4311028 78.6881483,93.2517166 C78.2712517,94.1557097 77.8487069,95.0567441 77.4248172,95.9577786 C77.6819483,95.869289 77.9388103,95.7799924 78.1954034,95.68962 C78.5348379,95.5699303 78.8718517,95.4408269 79.2088655,95.3119924 C79.7777276,95.0946683 80.3656862,94.8698131 80.9740862,94.683151 C82.0109483,94.3660407 83.0967621,94.3996614 84.1045759,94.7799786 C84.8923759,95.0777234 85.5265966,95.7323855 85.8447828,96.5753234 C86.1672724,97.4295579 86.1223552,98.3537234 85.7213276,99.1105924 C85.3730172,99.768751 84.8127621,100.14611 84.1841897,100.14611 C83.9746655,100.14611 83.767831,100.103613 83.5693345,100.019427 L82.6494724,99.6307717 L82.9692724,98.684551 C83.0131138,98.5543717 83.0628724,98.4249993 83.1123621,98.2969717 C83.1895552,98.0979372 83.2624448,97.9101993 83.2839621,97.7700683 C83.3105897,97.5976614 83.2976793,97.4575303 83.2495345,97.3953993 C83.2024655,97.3346131 83.0593759,97.2603786 82.7987483,97.234289 C82.691431,97.2232614 82.582231,97.2178821 82.4733,97.2178821 C81.7543552,97.2178821 81.0520862,97.4459648 80.1515897,97.8147166 C79.9840241,97.8830338 79.8172655,97.9524269 79.6502379,98.021551 C78.4821207,98.5064959 77.2771552,99.0070407 75.9323276,99.2173717 C74.2018034,103.024848 72.7039345,106.501496 71.8276448,110.241192 C71.6122034,111.161592 71.506231,112.182317 71.5129552,113.275392 C71.5215621,114.643351 72.3588517,115.527441 73.6455828,115.527441 C73.8970655,115.527441 74.1609207,115.493282 74.4298862,115.426579 C75.7803621,115.091986 76.9307276,114.281323 78.2760931,112.715944 C79.9076379,110.817586 81.1941,108.668282 82.5876103,106.259158 L83.4144103,104.832027 C85.0182517,102.064641 86.6769621,99.2031166 88.2167897,96.3485855 C88.7098034,95.4343717 89.0981897,94.4636752 89.5097069,93.4362269 C89.7603828,92.8087303 90.0199345,92.1605234 90.3055759,91.5254959 C92.746169,86.1009993 95.101769,81.8400476 97.7188034,78.1175648 C99.0192517,76.26762 100.638693,74.1511303 102.790417,72.4789717 C103.650031,71.8116683 104.835362,71.0233303 106.389445,70.8493097 C106.508328,70.8361303 106.626672,70.8291372 106.741252,70.8291372 C108.078279,70.8291372 109.00379,71.7151097 109.217348,73.1989924 C109.448121,74.800951 108.799376,76.1309855 108.173224,77.2525717 C106.779445,79.7472269 105.027403,81.86802 103.49699,83.6136062 C100.766721,86.7287648 97.9705552,89.8764683 95.2661069,92.920351 C94.1036379,94.2288683 92.941169,95.5368476 91.7803138,96.8469786 C91.3429759,97.3402614 90.8905759,97.8510269 90.4621138,98.3604476 C90.4621138,98.3604476 90.4301069,98.4010614 90.3865345,98.5169855 C89.2251414,101.602827 88.3173828,104.385006 87.6178034,107.01791 C87.9887069,106.336889 88.3779,105.663399 88.7899552,105.003627 C89.9206862,103.192413 91.3653,101.140475 93.5065345,99.6568614 C94.9199483,98.6778269 96.3121138,98.2507097 97.8132103,98.3609855 C99.3646034,98.474489 100.393666,99.5409372 100.499369,101.143703 C100.595121,102.593427 100.099417,103.829054 99.5383552,105.071406 C99.1195759,105.997723 98.6822379,106.928613 98.2594241,107.829379 C97.7467759,108.92111 97.2169138,110.049958 96.7217483,111.165627 C96.1722517,112.403406 95.9213069,113.462054 95.9320655,114.497303 C95.9336793,114.670786 95.9578862,114.849379 96.0014586,115.014792 C96.0670862,115.261165 96.1359414,115.261165 96.2233552,115.261165 C96.2720379,115.261165 96.3277138,115.254441 96.3890379,115.241261 C97.1676931,115.070468 97.8110586,114.551365 98.5372655,113.824889 C99.8352931,112.526323 100.866238,110.993489 101.984059,109.26942 C102.018217,109.214282 102.050224,109.166406 102.084652,109.120682 C103.052659,107.858965 103.417645,106.403592 103.66859,105.018958 C104.146541,102.379599 105.554038,100.204475 107.738845,98.7286614 C108.667583,98.1008959 109.659797,97.7757166 110.688321,97.7622683 L110.743728,97.7622683 C111.74401,97.7622683 112.61761,98.1189166 113.203686,98.7671234 C113.795679,99.4215166 114.065452,100.339765 113.963514,101.353227 C113.713376,103.847613 112.359403,105.855172 109.939252,107.319958 C108.815783,107.999634 107.561866,108.418413 106.129355,108.588399 C106.270562,109.82053 106.947548,110.990261 108.325997,111.318668 C110.175134,111.758965 111.863162,111.314903 113.586693,109.936454 C114.679769,109.062317 115.595328,107.959289 116.308086,106.65911 C117.044245,105.317779 117.738176,103.987206 118.472721,102.578365 C118.610162,102.31451 118.748141,102.050386 118.88639,101.785454 C118.03619,101.216054 117.543176,100.327392 117.442583,99.1616959 C117.370231,98.3235993 117.602348,97.5425234 118.0959,96.9626338 C118.530548,96.4510614 119.13841,96.1414821 119.807059,96.0911855 C119.883176,96.0852683 119.95741,96.0825786 120.029493,96.0825786 C120.717507,96.0825786 121.316762,96.328951 121.762707,96.7961441 C122.272666,97.3297717 122.538672,98.1288683 122.516617,99.0533028 C122.850672,98.895689 123.180693,98.7302752 123.510983,98.5648614 C124.228852,98.2049855 124.971197,97.8330062 125.75819,97.5368752 C126.41339,97.2910407 127.229162,97.2146545 128.1501,97.3125579 C129.118914,97.4139579 129.927693,97.8781924 130.426355,98.6194614 C130.948417,99.394889 131.07241,100.386027 130.77601,101.410517 C130.454328,102.522689 129.986866,103.694572 129.305038,105.098841 C128.833003,106.071151 128.325197,107.036199 127.834334,107.970317 C127.307431,108.971944 126.762507,110.007999 126.270569,111.037061 C125.692831,112.24633 125.436238,113.438386 125.507514,114.580413 C125.53441,115.009144 125.654638,115.131523 126.092514,115.17402 C126.945672,115.256323 127.687479,114.944861 128.693948,114.092241 C130.329797,112.705454 131.524003,110.937813 132.47641,109.391261 C134.180576,106.624951 135.878824,103.787096 137.521128,101.042303 L138.580045,99.2735855 C138.673107,99.1183924 138.748955,98.8609924 138.81001,98.6546959 C139.3119,96.9620959 140.789597,95.7805303 142.404197,95.7805303 C142.609148,95.7821441 143.165638,95.7864476 143.581997,96.2186752 C143.76839,96.4125993 143.986521,96.75822 143.972803,97.3077166 C143.967693,97.6129924 143.849886,97.896751 143.639286,98.107889 C143.376776,98.3720131 143.012866,98.4876683 142.594893,98.4287648 C142.246314,98.4128959 141.951528,98.5307028 141.722907,98.7749234 C141.450445,99.0654062 141.311121,99.4989786 141.341245,99.9632131 C141.431617,101.375282 141.684714,102.830386 141.929203,104.237882 L141.965514,104.44633 C142.123397,105.356779 142.305755,106.284441 142.482197,107.181172 C142.716197,108.371075 142.957728,109.600786 143.150845,110.828075 C143.286672,111.690648 143.267038,112.542192 143.247941,113.365765 C143.244176,113.537634 143.240141,113.709503 143.237721,113.881103 C143.236376,113.963137 143.113459,115.116192 143.071769,115.283758 L142.87381,116.075861 L142.057231,116.097917 C142.031679,116.098992 142.010431,116.101144 141.991066,116.102758 C141.648941,116.130192 141.387776,116.087965 141.051838,115.93842 L140.336659,115.619427 L140.420576,114.840503 C140.420576,114.840503 140.439403,114.663792 140.484321,114.280517 C140.7003,112.430841 140.42461,110.56691 140.126866,108.987813 C139.864624,107.596723 139.56661,106.183041 139.278279,104.81562 C139.209155,104.488289 139.1403,104.161227 139.071714,103.833896 C139.039976,103.885806 139.008507,103.937179 138.976769,103.989358 C138.538355,104.701579 138.102631,105.41622 137.666638,106.130054 C136.47781,108.077365 135.248638,110.091379 133.987459,112.046758 C132.869907,113.778089 131.432555,115.724592 129.240486,117.030958 C128.236438,117.629406 127.290486,117.919889 126.349107,117.919889 C125.988155,117.919889 125.625052,117.876317 125.26921,117.789441 C123.814914,117.437096 122.861431,116.267096 122.780472,114.736951 C122.692252,113.076358 123.061003,111.370579 123.876238,109.667489 C124.509114,108.345254 125.198472,107.034048 125.864969,105.765875 C126.224576,105.081358 126.584452,104.396841 126.936797,103.708827 C127.429272,102.747006 127.938155,101.75291 128.098459,100.681351 C128.136383,100.429599 128.113521,100.233254 128.036059,100.14342 C127.962093,100.057889 127.758217,99.9664407 127.40641,99.9664407 C127.367679,99.9664407 127.328679,99.9675166 127.288872,99.9696683 C126.500266,100.013779 125.784279,100.386027 124.955059,100.817448 C124.345045,101.135365 123.726155,101.431496 123.127707,101.718213 C122.899355,101.827682 122.671003,101.93742 122.44319,102.047696 C122.347438,102.095034 122.105369,102.214723 121.792024,102.214723 L121.749797,102.214186 C121.719672,102.214186 121.697886,102.215261 121.686859,102.216337 C121.617466,102.28842 121.498852,102.523227 121.418969,102.681917 C121.386693,102.74593 121.354148,102.810482 121.320797,102.874496 L120.961728,103.567082 C119.989148,105.442848 118.983755,107.382896 117.856252,109.228806 C116.596417,111.290696 114.816672,112.798517 112.709597,113.589544 C111.533948,114.030379 110.471534,114.245282 109.4613,114.245282 C108.018031,114.245282 106.692838,113.792882 105.522569,112.900992 C104.89561,112.422772 104.405555,111.820827 104.045948,111.08171 C103.199783,112.411744 102.23581,113.803372 101.117721,115.073696 C100.366769,115.925779 99.4253897,116.878186 98.1340862,117.483358 C97.6198241,117.724889 97.0186862,117.894068 96.3963,117.972875 C96.2911345,117.986592 96.1832793,117.993317 96.0765,117.993317 C94.9385069,117.993317 93.8914241,117.209013 93.471031,116.041703 C92.9860862,114.694992 93.2211621,113.407186 93.479369,112.30631 C93.9003,110.512848 94.680031,108.893137 95.4342103,107.326682 L95.7160862,106.739261 C96.3191069,105.474854 97.0028172,104.04073 97.5759828,102.615482 C97.7330586,102.225751 97.7443552,101.672758 97.7389759,101.290289 C97.7379,101.196151 97.7357483,101.053868 97.3928172,101.053868 C97.3694172,101.053868 97.3454793,101.054406 97.3212724,101.056558 C96.139169,101.142627 95.1033828,101.67222 93.9627,102.772558 C91.8069414,104.85193 90.3790034,107.497475 89.3757621,109.569854 C88.6543966,111.059654 87.9731069,112.61051 87.3141414,114.110799 C86.9397414,114.963958 86.5650724,115.816579 86.1809897,116.664896 L86.1532862,116.729448 C86.0389759,116.998951 85.6917414,117.819027 84.7681138,117.841082 L84.7363759,117.84162 L84.7051759,117.840544 C84.4926931,117.833282 83.4337759,117.712786 83.4372724,116.057572 C83.4434586,113.647372 83.7845069,111.137923 84.5064103,108.223951 C83.6952103,109.576041 82.8651828,110.936199 82.0141759,112.26731 C80.7072724,114.311448 79.2701897,115.836482 77.621431,116.930096 C76.1074241,117.933606 74.5035828,118.358572 72.8507897,118.195579 C70.6140724,117.975027 68.8926931,115.983068 68.7579414,113.459365 C68.7302379,112.93811 68.7458379,112.424923 68.7910241,111.924917 C67.7805207,112.466344 66.6228931,112.713792 65.3393897,112.660268 C64.1769207,114.56831 62.8686724,115.990868 61.3436379,117.005137 C60.1002103,117.832744 58.9003552,118.234579 57.6752172,118.234579" id="Fill-3" fill="#FFFFFF" sketch:type="MSShapeGroup"></path>
                <path d="M27.6761214,99.6701214 C27.5706869,99.5724869 27.5298041,99.5229972 27.4789697,99.4888386 C25.9698041,98.4729559 24.2833903,98.2217421 22.515749,98.3699421 C22.2319903,98.393611 21.9361283,98.5165283 21.6862593,98.6631145 C21.166349,98.9678524 21.1109421,99.6090662 21.5708731,99.9963766 C21.7637214,100.159101 22.0203145,100.292239 22.2666869,100.337694 C24.10668,100.678742 25.8651766,100.306763 27.6761214,99.6701214 M16.2085076,99.4452662 C16.1848386,99.4342386 16.1609007,99.423749 16.1369628,99.4132593 C16.0643421,99.5192317 15.9823076,99.6200938 15.9201766,99.7319834 C14.1320938,102.959301 12.2937145,106.160528 10.5782524,109.42577 C9.43837655,111.595514 8.44670069,113.847563 7.82189379,116.23248 C7.68256966,116.763687 7.62931448,117.333087 7.64222483,117.882583 C7.65136966,118.27339 7.98192828,118.371563 8.26461103,118.089418 C8.51851448,117.836859 8.75654897,117.543149 8.91712138,117.224963 C9.54031448,115.990949 10.2043903,114.769577 10.7178455,113.489839 C12.2794593,109.595487 13.7778662,105.676121 15.3012869,101.767246 C15.6027972,100.992894 15.9059214,100.21908 16.2085076,99.4452662" id="Fill-5" fill="#FFFFFF" sketch:type="MSShapeGroup"></path>
                <path d="M17.0974386,121.226228 C16.6547214,121.226228 16.2273352,121.205249 15.8222731,121.165173 L15.7243697,121.151187 C13.9403214,120.807449 13.0056662,120.578021 11.9378731,119.493283 L13.2681766,116.792063 C13.3534386,116.907987 13.4069628,116.963125 13.5164317,117.073132 C14.4381766,117.997028 16.1280869,118.591711 17.6361766,118.520704 C20.5977559,118.378959 23.5122662,116.76947 25.6325214,114.10429 C26.8162386,112.616104 27.8167903,110.278525 28.3084593,107.850842 C28.7702731,105.568939 28.6142731,103.607373 27.8315834,101.853449 C27.8146386,101.814987 27.7939283,101.777063 27.7737559,101.739408 C27.71808,101.632628 27.6693972,101.536608 27.6255559,101.449463 C27.6064593,101.455111 27.5876317,101.461566 27.5693421,101.467214 L27.4644455,101.500835 C25.5590938,102.110849 23.8441697,102.271421 22.2225766,101.992504 C21.8320386,101.925263 21.4318179,101.788628 20.9998593,101.574532 C20.0937145,101.125359 19.5953214,100.273277 19.6335145,99.2366834 C19.6676731,98.2915386 20.2042593,97.5292903 21.1442938,97.0914145 C22.3554455,96.525511 23.6090938,96.6400903 24.5243834,96.7229317 C26.0093421,96.8579524 27.343411,97.3340214 28.4953903,98.1376903 C30.5559352,97.1616145 32.4481076,95.7363662 34.2733076,93.7860972 C36.3707007,91.5448076 37.8777145,89.2236352 38.87988,86.6889041 C39.5280869,85.0498283 39.7747283,83.6907455 39.6555766,82.4112766 C39.49608,80.7033455 38.45088,79.7366834 36.8690938,79.8364697 C35.6202869,79.9112421 34.3884248,80.3671386 32.874149,81.3152421 C30.4488869,82.8330145 28.4187352,84.9000145 26.7527628,86.7225248 C24.0577283,89.6706559 21.5695283,92.9340145 19.1464179,96.6989938 C18.7682524,97.2866834 18.5119283,98.0026697 18.2405421,98.7608834 C18.1265007,99.0785317 18.0089628,99.4074766 17.8795903,99.7326559 C17.2168593,101.396746 16.5568179,103.062718 15.8967766,104.728421 C14.4395214,108.406256 12.9327766,112.209159 11.4209214,115.93998 C11.0712662,116.802552 10.581211,117.569911 10.1075628,118.312256 C10.0029352,118.476594 9.89830759,118.640125 9.79583172,118.804463 C9.20034207,119.758483 8.2406731,120.129925 7.29230069,119.771125 C6.68901103,119.544118 5.96683862,118.98198 5.95661793,117.595194 C5.94612828,116.169946 6.42246621,114.941849 6.88293517,113.753559 L6.89745931,113.716711 C8.80684552,108.792759 11.3138731,103.92529 14.3499559,99.2504007 C16.4484248,96.018511 17.6883559,92.4689731 18.6246248,89.4232076 C19.1719697,87.6407731 19.7160869,85.7375731 19.8303972,83.788111 C19.8527214,83.4040283 19.8333559,83.0105317 19.7744524,82.6369386 C19.2682593,82.9968145 18.8134386,83.3897731 18.4194041,83.8069386 C16.3588593,85.9885179 14.7832593,88.1908076 13.6019628,90.5394145 C13.5043283,90.7349524 13.4212179,90.9708352 13.3335352,91.2201662 C13.2845834,91.3589524 13.2356317,91.4988145 13.1823766,91.6373317 L12.8294938,92.5620352 L11.8787007,92.2871524 C11.40048,92.1491731 11.0346869,91.8484697 10.8477559,91.4415248 C10.7081628,91.1378628 10.6054179,90.63678 10.9082731,89.9732421 C11.3023076,89.1117455 11.6960731,88.273111 12.1818248,87.4842352 C13.8020731,84.8502559 15.3983834,82.8486145 17.2052938,81.1866766 C17.6835145,80.7458421 18.2475352,80.3472352 18.8357628,80.0330834 C19.48908,79.685311 20.1902731,79.6175317 20.8094317,79.8429248 C21.4484938,80.0750421 21.961949,80.6030214 22.2551214,81.3294972 C22.7699214,82.6038559 22.5977834,83.9045731 22.4721766,84.8542903 C22.31268,86.0600628 22.062811,87.2424352 21.7610317,88.4040972 C23.6004869,86.0727041 25.8479628,83.4989731 28.4929697,81.2087317 C30.5467903,79.4300628 32.3087834,78.3262283 34.2057972,77.6309524 C35.5562731,77.1363248 36.7956662,76.9835524 37.9963283,77.1648352 C40.2346593,77.5021179 41.8339283,79.1226352 42.2736869,81.4997524 C42.5754662,83.1286076 42.4035972,84.8370766 41.7483972,86.7230628 C40.2249766,91.1098903 37.5095007,94.9122559 33.677011,98.0247248 C32.8375697,98.7065524 31.8536938,99.2918214 30.9023628,99.8582628 C30.6307076,100.019911 30.3660455,100.177525 30.1091834,100.334063 C30.4927283,101.01347 30.7856317,101.794008 30.9722938,102.642863 C31.5599834,105.31369 31.3257145,108.05687 30.2770179,110.796014 C29.3154662,113.307614 27.5569697,116.740421 24.6346593,118.86498 C22.6782041,120.537408 19.6456179,121.226228 17.0974386,121.226228" id="Fill-7" fill="#FFFFFF" sketch:type="MSShapeGroup"></path>
                <path d="M107.063257,49.6900614 C107.35374,48.9030683 107.578595,48.1042407 107.395699,47.2483924 C107.312319,46.8565097 107.02614,46.5722131 106.681057,46.5412821 C106.328443,46.5098131 105.984706,46.5891579 105.801809,46.9127234 C105.279747,47.8355441 105.628864,49.4972131 107.063257,49.6900614 M74.6736228,60.4548683 C74.7193469,60.378751 74.7559262,60.324151 74.7860503,60.2663234 C76.0240986,57.8902821 76.7772021,55.3735717 76.9644021,52.6965579 C77.051009,51.4504407 76.9673607,50.2290683 76.3777883,49.0886545 C75.84174,48.0509855 74.804609,47.4974545 73.6978159,47.7443648 C72.2002159,48.0778821 71.5899331,49.2677855 71.0412434,50.5857166 C71.2187607,50.5311166 71.3322641,50.481089 71.450609,50.4622614 C72.2004848,50.3441855 72.9495538,50.2086269 73.704271,50.1282062 C74.0732917,50.0886683 74.1889469,50.2527372 74.1919055,50.6478476 C73.1335262,50.6938407 72.1066159,50.9065924 71.1009538,51.2438752 C70.8906228,51.3143441 70.8123538,51.4224683 70.7865331,51.6131648 C70.4992779,53.7323441 70.6020228,55.7996131 71.575409,57.7574131 C72.230071,59.0750752 73.1967331,60.0288269 74.6736228,60.4548683 M70.1606503,51.6919717 C70.0581745,51.7355441 69.9742572,51.7645924 69.8970641,51.8049372 C66.9637262,53.3463786 64.937609,55.6551786 64.0069883,58.8590959 C63.5389883,60.4707372 63.3079469,62.1149234 63.8179055,63.7650269 C64.1826228,64.9465924 64.9464848,65.7865717 66.130471,66.2109993 C67.4970848,66.7010545 68.7854297,66.4557579 70.0059952,65.7569855 C71.9602986,64.6386269 73.2744641,62.9183234 74.414071,61.0180821 C74.3505952,60.9828476 74.305409,60.948151 74.2548434,60.9314752 C72.9998503,60.5005924 72.0579331,59.6759441 71.3718021,58.5653855 C70.2773814,56.7934407 69.9414434,54.8394062 70.0643607,52.7874683 C70.0861469,52.4297441 70.1267607,52.0728269 70.1606503,51.6919717 M80.5900572,58.9836269 C80.0604641,59.4258062 79.523071,59.9631993 78.9022986,60.3741786 C77.7815193,61.1157166 76.5001676,61.2649924 75.1876159,61.1493372 C74.9549607,61.1288959 74.8947124,61.2402476 74.8089124,61.3862959 C74.0068572,62.7521028 73.0525676,63.9976821 71.8728848,65.0609028 C70.9191331,65.9205166 69.8645193,66.61902 68.6011883,66.9280614 C66.2437055,67.5047234 63.6567952,66.3659234 63.0747538,63.4266683 C62.768671,61.8806545 62.9531814,60.3494338 63.377071,58.8590959 C64.3383538,55.4781993 66.4206848,52.9649855 69.500609,51.3033166 C70.1030917,50.9781372 70.4635055,50.6247166 70.6810986,49.9563372 C71.0312917,48.881551 71.6889124,47.9858959 72.7324986,47.431289 C74.1674297,46.6690407 75.9573952,47.1757717 76.7850021,48.5706269 C77.5693055,49.8912476 77.6596779,51.3302131 77.5585469,52.8073717 C77.37834,55.4402752 76.6335745,57.9155648 75.4581952,60.2684752 C75.4229607,60.3384062 75.3914917,60.41022 75.3610986,60.4823028 C75.3527607,60.5016683 75.3543745,60.5253372 75.3465745,60.5874683 C76.7021607,60.6183993 77.9950779,60.4381924 79.0741676,59.5465717 C80.2638021,58.5648476 81.0903331,57.3025924 81.7592503,55.9241441 C82.7581883,53.866289 83.7762228,51.8181166 84.7824228,49.7645648 C84.9303538,49.4625166 85.0696779,49.1564338 85.1931331,48.8438959 C85.2845814,48.6120476 85.4483814,48.5281303 85.6689331,48.5867648 C85.9096572,48.6515855 85.8464503,48.8422821 85.7818986,49.0004338 C85.6167538,49.4038821 85.4556434,49.810289 85.2649469,50.2021717 C84.2436848,52.2971441 83.1844986,54.3749028 82.1960503,56.4852062 C81.4776434,58.0201924 80.9321814,59.6269924 80.6137262,61.2953855 C80.4098503,62.3650614 80.2465883,63.4419993 80.4964572,64.5393786 C80.7734917,65.7575234 81.9730779,66.5582338 83.2038641,66.3753372 C84.3918848,66.1988959 85.2972228,65.5391234 86.1353193,64.7663855 C87.6772986,63.3454407 88.8693538,61.6380476 90.0043883,59.8903097 C92.2456779,56.4410959 94.1647469,52.8146338 95.8869331,49.0821993 C95.9668159,48.9095234 96.0302917,48.7293166 96.0934986,48.5496476 C96.1790297,48.3054269 96.378871,48.2486752 96.5762917,48.3253303 C96.6456848,48.3519579 96.6984021,48.6026338 96.6550986,48.7083372 C96.3619262,49.4216338 96.0534228,50.1303579 95.7274366,50.8288614 C94.5590503,53.3272821 93.3481676,55.8063372 92.2206641,58.3227786 C91.5423331,59.8378614 91.035871,61.4247579 90.7975676,63.0767441 C90.67734,63.9116131 90.6426434,64.7464821 90.9532986,65.5711303 C91.3981676,66.7521579 92.5482641,67.1644821 93.5832434,67.0493648 C94.9928917,66.8928269 96.0948434,66.1338062 97.1134159,65.2322338 C99.0273745,63.5374821 100.458809,61.4516545 101.866843,59.3435028 C103.785106,56.4704131 105.391637,53.4297579 106.821457,50.2941579 C106.530706,50.1464959 106.216554,50.0251924 105.943823,49.8417579 C105.004057,49.2099579 104.66543,47.61042 105.246126,46.6373028 C105.554092,46.1219648 106.189388,45.8414338 106.815809,45.9444476 C107.416678,46.0431579 107.872037,46.5125028 108.004368,47.1679717 C108.176774,48.0216683 107.997106,48.8406683 107.727333,49.77102 C108.35214,49.5198062 108.926112,49.3258821 109.466464,49.0633717 C110.384174,48.6179648 111.267995,48.102089 112.18974,47.66502 C113.085395,47.2405924 114.030809,47.0533924 115.036471,47.20482 C116.312443,47.3965924 117.058554,48.374551 116.907933,49.6680062 C116.783133,50.7449441 116.417071,51.7425372 115.92594,52.6890269 C115.006885,54.4615097 114.034843,56.2068269 113.106643,57.9739303 C112.406795,59.3055786 111.780106,60.6740752 111.448202,62.14962 C111.30565,62.781151 111.208823,63.4347372 111.192954,64.0813303 C111.153954,65.6426752 112.120885,66.2392407 113.551512,66.1026062 C114.901181,65.9735028 115.92594,65.2023786 116.868395,64.3193648 C118.425168,62.8610338 119.569347,61.6211028 120.807933,59.3690545 L121.279699,59.6234959 C120.364947,61.338151 119.16294,62.882551 117.790947,64.2830545 C116.950968,65.1402476 116.030837,65.8968476 114.90683,66.3511303 C113.961685,66.7330614 112.985878,66.9175717 111.994202,66.5135855 C111.180312,66.181951 110.751043,65.5375097 110.636733,64.6891924 C110.461099,63.3879372 110.75723,62.1423579 111.154223,60.9188338 C111.836857,58.8139097 112.957906,56.9179717 113.989926,54.9773855 C114.683588,53.6726338 115.322919,52.3366821 115.929706,50.9891648 C116.127395,50.5504821 116.202706,50.0356821 116.235519,49.5493924 C116.330195,48.1418959 115.263209,47.6760476 114.084333,47.7669579 C112.92805,47.8562545 111.954933,48.4178545 110.963257,48.9447579 C110.261257,49.3175441 109.546347,49.6701579 108.819602,49.9921097 C108.507871,50.1308959 108.155526,50.1849579 107.815823,50.2489717 C107.579133,50.29362 107.427168,50.3751166 107.319043,50.6177234 C105.568885,54.5473097 103.417968,58.24962 100.939719,61.7625786 C99.8929055,63.2464614 98.7379676,64.6413166 97.3447262,65.8185786 C96.3931262,66.6227855 95.3594917,67.2919717 94.1190228,67.5585166 C92.9498297,67.8089234 91.84734,67.7059097 90.9826159,66.7688338 C90.2959469,66.0248752 90.0463469,65.0845717 90.1219262,64.1165648 C90.1996572,63.1283855 90.404609,62.1428959 90.6326917,61.1751579 C90.8196228,60.3819786 91.1238228,59.6165028 91.3744986,58.8381166 C91.4038159,58.7461303 91.4231814,58.6503786 91.4621814,58.4976062 C90.8365676,59.4925097 90.2607124,60.44142 89.6512366,61.3685441 C88.7598848,62.7249372 87.78354,64.0173166 86.5957883,65.1324476 C85.7461262,65.9304683 84.8222297,66.6101441 83.6597607,66.9049303 C81.7899124,67.3788476 80.0123193,66.1217028 79.819471,64.1999441 C79.6680434,62.6934683 79.9706297,61.2501993 80.3522917,59.8131166 C80.4329814,59.5110683 80.5244297,59.2114407 80.5900572,58.9836269" id="Fill-9" fill="#FFFFFF" sketch:type="MSShapeGroup"></path>
                <path d="M71.8043255,52.148971 C71.5797393,54.185309 71.8156221,55.8235779 72.5386014,57.2786814 C72.9576497,58.1216193 73.4861669,58.7125366 74.1690703,59.091509 C75.1575186,57.0048745 75.7366014,54.8310952 75.8909876,52.6215434 C75.98136,51.322171 75.8366566,50.3848262 75.4221807,49.5825021 C75.1013048,48.9617297 74.5372841,48.6594124 73.9321117,48.7941641 C73.6623393,48.8544124 73.4350634,48.9547366 73.2346841,49.0999779 C73.353029,49.0849159 73.4713738,49.0709297 73.5902566,49.0582883 C73.6661048,49.0502193 73.7373807,49.0467228 73.8038152,49.0467228 C74.4738083,49.0467228 75.2591876,49.4638883 75.2677945,50.6398055 L75.2753255,51.6774745 L74.2390014,51.7226607 C73.4396359,51.7573572 72.6397324,51.8972193 71.8043255,52.148971 M68.9643186,53.6301641 C67.0059807,55.0131848 65.7149462,56.8351572 65.0401117,59.1590193 C64.53096,60.9121366 64.4709807,62.234909 64.8456497,63.4474055 C65.1167669,64.325309 65.6560428,64.8979366 66.4936014,65.1981021 C67.4747876,65.5504469 68.4115945,65.4302193 69.4713186,64.8234331 C70.9533186,63.9753848 72.0143876,62.725771 72.8522152,61.477771 C71.8885117,60.9371503 71.0872634,60.151771 70.4562703,59.1307779 C69.4629807,57.5223641 68.9718497,55.7154538 68.9643186,53.6301641 M93.1055876,68.7514055 C91.9393531,68.7514055 90.9589738,68.3299366 90.1918841,67.4982952 C89.342491,66.5781641 88.9468428,65.3842262 89.0482428,64.0453159 C88.4831462,64.7516193 87.9188566,65.3662055 87.3322428,65.9167779 C86.5398703,66.6610055 85.4363048,67.5641917 83.9244497,67.9477366 C83.5756014,68.0362262 83.219491,68.0808745 82.8666083,68.0808745 C80.7350566,68.0808745 78.9647255,66.4587434 78.7487462,64.3075572 C78.657029,63.3911917 78.7148566,62.5006469 78.8501462,61.6413021 C77.8972014,62.1071503 76.8248359,62.3077986 75.54456,62.2513159 C74.670691,63.677909 73.704029,64.8589366 72.5932014,65.8602952 C71.3470841,66.9832262 70.1598703,67.6545641 68.8567324,67.9730193 C68.3801255,68.0897503 67.89276,68.1489228 67.4083531,68.1489228 C64.6778152,68.1491917 62.5624014,66.3775159 62.01936,63.6356814 C61.7103186,62.0737986 61.8157531,60.4150883 62.3421186,58.5648745 C63.3722566,54.9421779 65.6089738,52.18044 68.9896014,50.3563159 C69.3989669,50.1357641 69.5425945,49.9778814 69.6582497,49.6231159 C70.116029,48.217771 71.0044221,47.1314193 72.2274083,46.4813297 C72.8191324,46.166909 73.48536,46.0009572 74.1540083,46.0009572 C75.6080359,46.0009572 76.9706152,46.775309 77.7100014,48.0214262 C78.7070566,49.70004 78.7261531,51.5002262 78.6317462,52.8808262 C78.4830083,55.0559503 77.9539531,57.2316124 77.0561462,59.3666607 C77.5830497,59.239171 78.0152772,59.0261503 78.3891393,58.717109 C79.3208359,57.9481366 80.08416,56.9115434 80.7912703,55.4542883 C81.4144634,54.1702469 82.0454566,52.889971 82.6761807,51.6096952 C83.0567669,50.8372262 83.4373531,50.0644883 83.8163255,49.2912124 C83.9674841,48.98244 84.0906703,48.7067503 84.1926083,48.4485434 C84.4771738,47.7277159 85.2031117,47.3490124 85.9459945,47.547509 C86.3252359,47.6491779 86.6232497,47.8864055 86.7862428,48.2153503 C87.0487531,48.7444055 86.8448772,49.2433366 86.7779048,49.4074055 L86.7122772,49.567709 C86.5651531,49.9283917 86.4129186,50.3014469 86.2324428,50.6728883 C85.8747186,51.4068952 85.512691,52.1379434 85.1503945,52.8689917 C84.490891,54.200909 83.8087945,55.5782814 83.1702703,56.9413986 C82.4639669,58.4505641 81.9593876,59.9833986 81.6705186,61.4971366 C81.4873531,62.4589572 81.339691,63.397109 81.5454497,64.3005641 C81.6804703,64.89444 82.2302359,65.3255917 82.8526221,65.3255917 C82.9169048,65.3255917 82.9819945,65.3207503 83.0457393,65.3113366 C84.0008359,65.1693228 84.7445255,64.5853986 85.4061807,63.9753848 C86.7760221,62.7128607 87.8742083,61.1950883 89.1023048,59.3042607 C91.15236,56.1490262 93.0520634,52.6581228 94.9100772,48.63144 C94.9700566,48.5017986 95.0251945,48.3449917 95.0781807,48.1932952 C95.286091,47.6007641 95.8113807,47.2174883 96.4168221,47.2174883 C96.6018703,47.2174883 96.7869186,47.2527228 96.9660497,47.3226538 C97.2543807,47.4340055 97.4864979,47.6637021 97.6180221,47.968709 C97.7425531,48.2583848 97.8165186,48.7121297 97.6502979,49.1166538 C97.3396428,49.8727159 97.0206497,50.6018814 96.7019255,51.2842469 C96.3057393,52.1322952 95.9044428,52.9773848 95.5031462,53.8224745 C94.7365945,55.4381503 93.9436841,57.1086952 93.2026841,58.7625641 C92.5213945,60.2832952 92.0708772,61.7865434 91.862429,63.2303503 C91.7362841,64.1050262 91.7647945,64.6730814 91.9600634,65.1921848 C92.2223048,65.8879986 92.8804634,65.9920883 93.2494841,65.9920883 C93.32076,65.9920883 93.3931117,65.9880538 93.4641186,65.9799848 C94.4232497,65.8734745 95.2739876,65.4234952 96.4001462,64.42644 C98.1605255,62.8680538 99.5123462,60.931771 100.972022,58.7458883 C102.538477,56.399971 103.995463,53.7853572 105.411029,50.7788607 C105.388436,50.7646055 105.365843,50.7498124 105.34325,50.7347503 C103.925801,49.7812676 103.438974,47.5655297 104.322257,46.0859503 C104.778691,45.3220883 105.634808,44.8476331 106.557091,44.8476331 C106.701794,44.8476331 106.847574,44.8594676 106.990126,44.8828676 C108.027257,45.0533917 108.838994,45.8667434 109.059008,46.9549779 C109.132974,47.3215779 109.156912,47.6771503 109.146153,48.0222331 C109.510063,47.8417572 109.868863,47.6513297 110.246222,47.4509503 C110.724981,47.1967779 111.219877,46.9339986 111.72876,46.6927366 C112.868367,46.1526538 114.038098,45.9667986 115.196263,46.1408193 C117.051319,46.4197366 118.194691,47.921371 117.976291,49.7925641 C117.847726,50.9017779 117.489463,52.0117986 116.881063,53.1847572 C116.372719,54.1648676 115.841781,55.1490124 115.328057,56.1008814 C114.902015,56.8905641 114.475974,57.6799779 114.059077,58.4742331 C113.469774,59.5955503 112.823719,60.9368814 112.497732,62.3857986 C112.358408,63.0033434 112.281215,63.5826952 112.268305,64.1079848 C112.263463,64.3107848 112.27987,64.6765779 112.447705,64.8484469 C112.603705,65.0087503 112.973532,65.0773366 113.449332,65.0316124 C114.511477,64.9299434 115.366788,64.2518814 116.132801,63.5342814 C117.715126,62.0520124 118.726705,60.9207434 119.864967,58.8507848 L120.379229,57.9161297 L122.733484,59.1843021 L122.229174,60.1297159 C121.326794,61.8207021 120.091974,63.4713434 118.559408,65.0359159 C117.863594,65.7462538 116.769712,66.75864 115.310036,67.3487503 C113.893932,67.92084 112.700532,67.9630676 111.58836,67.5098607 C110.457629,67.0493917 109.741105,66.0985986 109.570581,64.8325779 C109.358905,63.2658538 109.734919,61.8069848 110.130836,60.5869572 C110.72767,58.7466952 111.634622,57.0726538 112.511719,55.4537503 C112.688429,55.1269572 112.865408,54.8001641 113.039967,54.4722952 C113.661815,53.3028331 114.286084,52.0187917 114.948546,50.5472814 C115.060705,50.2990262 115.130367,49.9491021 115.161836,49.4773366 C115.172057,49.3242952 115.164794,49.1209572 115.070926,49.0206331 C114.985663,48.9294538 114.754622,48.8318193 114.36247,48.8318193 C114.297919,48.8318193 114.232829,48.834509 114.166932,48.8396193 C113.320229,48.9049779 112.526781,49.3291366 111.686801,49.77804 L111.468132,49.894771 C110.709919,50.2974124 109.965691,50.6610538 109.255353,50.9757434 C108.893057,51.1371228 108.53076,51.2105503 108.205312,51.2707986 C106.506526,55.0457297 104.358567,58.7827366 101.818994,62.382571 C100.55136,64.1795297 99.35016,65.5324262 98.0392221,66.6402952 C97.2379738,67.3175503 95.9832497,68.2586607 94.3449807,68.6101986 C93.9017255,68.7051434 93.4963945,68.7514055 93.1055876,68.7514055" id="Fill-11" fill="#FFFFFF" sketch:type="MSShapeGroup"></path>
                <path d="M35.4514303,53.0563262 C36.0775821,53.6472434 37.0781338,52.8949469 37.4170303,52.7284572 C37.115789,52.6848848 35.8199131,52.46514 35.4514303,53.0563262 M53.261789,28.0263952 C53.5794372,27.6727055 53.9836924,27.6226779 54.1854166,27.6226779 C54.2999959,27.6226779 54.4178028,27.638009 54.5348028,27.6675952 C54.9022097,27.7609262 55.203989,27.9841676 55.3860786,28.2958986 C55.5124924,28.5129538 55.6348717,28.8658366 55.5340097,29.3467469 C55.5264786,29.3841331 55.5173338,29.4220572 55.5065752,29.4607883 L55.4877476,29.5301814 C55.3024303,30.2087814 55.1106579,30.9102434 54.8927959,31.6017538 C53.6380717,35.5835193 52.1571476,39.1529607 50.3658372,42.5142228 C48.2490786,46.4857676 46.1317821,49.4379331 43.7024855,51.8048297 C43.9079752,51.8927814 44.11212,51.9807331 44.3143821,52.0681469 C45.8235476,52.7185055 47.2611683,53.3382021 48.7730234,53.7311607 C48.88572,53.5089952 48.9997614,53.2868297 49.1172993,53.0668159 C49.4596924,52.4250641 49.8042372,51.7843883 50.149051,51.1437124 C50.5215683,50.4505883 50.8943545,49.7574641 51.264451,49.0629952 C51.3265821,48.9459952 51.38172,48.8246917 51.4368579,48.7036572 C51.5331476,48.4933262 51.6423476,48.2547538 51.7859752,48.0186021 C52.1792028,47.37174 52.715789,47.2751814 53.0006234,47.2751814 C53.144251,47.2751814 53.2876097,47.2985814 53.4277407,47.3445745 C53.7429683,47.44194 54.0038648,47.6517331 54.1655131,47.9384503 C54.4226441,48.3943469 54.3341545,48.8526641 54.2843959,49.0285676 C54.1730441,49.4172228 54.0229614,49.7905469 53.8376441,50.1399331 C53.1810993,51.3785193 52.5183683,52.6141469 51.8553683,53.8500434 L51.6654786,54.204271 C51.7052855,54.2069607 51.7445545,54.2096503 51.7843614,54.2118021 C54.1421131,54.3532779 56.0746303,53.923471 57.7524372,52.8917193 C59.1454097,52.0339883 59.9913062,50.9683469 60.3380028,49.6348159 C60.4272993,49.2913469 60.4695269,48.9010779 60.5141752,48.4879469 C60.5373062,48.2719676 60.5607062,48.0538366 60.5910993,47.8338228 L60.6758234,47.2176228 L61.2519476,46.9833538 C61.4711545,46.8943262 61.6782579,46.8510228 61.8848234,46.8510228 C62.3885959,46.8510228 63.24552,47.1829262 63.261389,48.4271607 C63.2740303,49.4322848 63.0860234,50.3965262 62.7022097,51.2932572 C61.7538372,53.5089952 59.9859269,55.1273607 57.4468924,56.1034366 C55.2400303,56.9528297 52.8524234,57.2061952 50.3136579,56.8533124 C49.6208028,58.2963124 48.9147683,59.9644366 48.5608097,61.7188986 C48.3542441,62.7450021 48.3416028,63.5779883 48.5212717,64.3394297 C48.6713545,64.9747262 48.8806097,65.2797331 49.7235476,65.4077607 C49.7878303,65.4174434 49.8523821,65.4214779 49.9163959,65.4265883 C50.0374303,65.4357331 50.1869752,65.4472986 50.3475476,65.4766159 C51.1692372,65.5839331 51.4788166,66.1692021 51.4979131,66.6396228 C51.5188924,67.277071 51.132389,67.8106986 50.5360924,67.9758434 C50.2883752,68.0441607 49.9502855,68.1374917 49.5777683,68.1374917 C49.5247821,68.1374917 49.4723338,68.135609 49.4201545,68.1318434 C47.4792993,67.9922503 46.1920303,66.8133745 45.7953062,64.8130779 C45.4798097,63.2218779 45.6390372,61.591409 46.29612,59.6820228 C46.6651407,58.6083124 47.0796166,57.5367538 47.4803752,56.5006986 C47.5145338,56.4127469 47.5484234,56.3250641 47.5823131,56.2371124 C47.4454097,56.1940779 47.3063545,56.146471 47.1678372,56.0929469 C45.8450648,55.5805676 44.5091131,55.0461331 43.2170028,54.5291814 L41.8791683,53.9947469 C41.7215545,53.931809 41.5790028,53.8586503 41.4533959,53.7940986 C41.4149338,53.7744641 41.3675959,53.7499883 41.3226786,53.7279331 C41.2904028,53.752409 41.2578579,53.7776917 41.2304234,53.79894 C41.1239131,53.8817814 41.0031476,53.9753814 40.8657062,54.0627952 C39.2443821,55.0918572 37.6424234,55.6660986 35.968651,55.8177952 C35.7868303,55.8342021 35.5458372,55.8530297 35.2897821,55.8530297 C34.7392097,55.8530297 34.2593752,55.7626572 33.82392,55.5765331 C32.9756028,55.2128917 32.4018993,54.4675883 32.2886648,53.5824228 C32.1711269,52.6636366 32.5616648,51.7580297 33.3333269,51.1601193 C34.26072,50.4417124 35.3225959,50.2324572 36.1437476,50.1305193 C37.6905683,49.9387469 39.2613269,50.1146503 40.8175614,50.6566159 C42.864389,48.8835952 44.6511269,46.6213262 46.592251,43.3593124 C48.4717821,40.2000434 50.102251,36.6943469 51.57672,32.6423814 C51.9166924,31.7082641 52.2367614,30.7405262 52.5468786,29.8047952 C52.6697959,29.4328159 52.7929821,29.0611055 52.9175131,28.6899331 L52.9274648,28.6568503 C53.0086924,28.3795469 53.1275752,28.17594 53.261789,28.0263952" id="Fill-13" fill="#FFFFFF" sketch:type="MSShapeGroup"></path>
                <path d="M37.0006179,130.873537 C36.8352041,132.311965 35.6001145,133.449151 34.1092386,133.449151 C32.5048593,133.449151 31.2245834,132.153813 31.2245834,130.549703 C31.2245834,128.945592 32.5048593,127.642723 34.1019766,127.642723 C35.1482524,127.642723 36.0745697,128.184958 36.5794179,129.005841 L35.6678938,129.65351 C35.2612179,129.051027 34.6885903,128.757317 34.1092386,128.757317 C33.1678593,128.757317 32.4225559,129.555606 32.4225559,130.549703 C32.4225559,131.536268 33.1678593,132.327027 34.1092386,132.327027 C34.9524455,132.327027 35.6606317,131.717013 35.8185145,130.873537 L37.0006179,130.873537 Z" id="Fill-15" fill="#FFFFFF" sketch:type="MSShapeGroup"></path>
                <path d="M37.0006179,130.873537 C36.8352041,132.311965 35.6001145,133.449151 34.1092386,133.449151 C32.5048593,133.449151 31.2245834,132.153813 31.2245834,130.549703 C31.2245834,128.945592 32.5048593,127.642723 34.1019766,127.642723 C35.1482524,127.642723 36.0745697,128.184958 36.5794179,129.005841 L35.6678938,129.65351 C35.2612179,129.051027 34.6885903,128.757317 34.1092386,128.757317 C33.1678593,128.757317 32.4225559,129.555606 32.4225559,130.549703 C32.4225559,131.536268 33.1678593,132.327027 34.1092386,132.327027 C34.9524455,132.327027 35.6606317,131.717013 35.8185145,130.873537 L37.0006179,130.873537 L37.0006179,130.873537 Z" id="Stroke-17" stroke="#FFFFFF" stroke-width="0.5" sketch:type="MSShapeGroup"></path>
                <path d="M41.5872062,130.542037 C41.5872062,131.543934 42.3325097,132.327161 43.2964821,132.327161 C44.2453924,132.327161 44.9987648,131.543934 44.9987648,130.542037 C44.9987648,129.555472 44.2378614,128.757182 43.28922,128.757182 C42.3325097,128.757182 41.5872062,129.555472 41.5872062,130.542037 M40.3895028,130.542037 C40.3895028,128.937927 41.6848407,127.642858 43.28922,127.642858 C44.9003234,127.642858 46.1959303,128.937927 46.1959303,130.542037 C46.1959303,132.146417 44.9003234,133.449286 43.2964821,133.449286 C41.6848407,133.449286 40.3895028,132.146417 40.3895028,130.542037" id="Fill-19" fill="#FFFFFF" sketch:type="MSShapeGroup"></path>
                <path d="M41.5872062,130.542037 C41.5872062,131.543934 42.3325097,132.327161 43.2964821,132.327161 C44.2453924,132.327161 44.9987648,131.543934 44.9987648,130.542037 C44.9987648,129.555472 44.2378614,128.757182 43.28922,128.757182 C42.3325097,128.757182 41.5872062,129.555472 41.5872062,130.542037 L41.5872062,130.542037 Z M40.3895028,130.542037 C40.3895028,128.937927 41.6848407,127.642858 43.28922,127.642858 C44.9003234,127.642858 46.1959303,128.937927 46.1959303,130.542037 C46.1959303,132.146417 44.9003234,133.449286 43.2964821,133.449286 C41.6848407,133.449286 40.3895028,132.146417 40.3895028,130.542037 L40.3895028,130.542037 Z" id="Stroke-21" stroke="#FFFFFF" stroke-width="0.5" sketch:type="MSShapeGroup"></path>
                <path d="M49.8185193,133.351221 L49.8185193,127.7406 L52.800809,127.7406 L52.800809,128.795214 L50.9858297,128.795214 L50.9858297,129.841759 L53.0945193,129.841759 L53.0945193,130.888572 L50.9858297,130.888572 L50.9858297,133.351221 L49.8185193,133.351221 Z" id="Fill-23" fill="#FFFFFF" sketch:type="MSShapeGroup"></path>
                <path d="M49.8185193,133.351221 L49.8185193,127.7406 L52.800809,127.7406 L52.800809,128.795214 L50.9858297,128.795214 L50.9858297,129.841759 L53.0945193,129.841759 L53.0945193,130.888572 L50.9858297,130.888572 L50.9858297,133.351221 L49.8185193,133.351221 L49.8185193,133.351221 Z" id="Stroke-25" stroke="#FFFFFF" stroke-width="0.5" sketch:type="MSShapeGroup"></path>
                <path d="M56.4911503,133.351221 L56.4911503,127.7406 L59.47344,127.7406 L59.47344,128.795214 L57.6584607,128.795214 L57.6584607,129.841759 L59.7671503,129.841759 L59.7671503,130.888572 L57.6584607,130.888572 L57.6584607,133.351221 L56.4911503,133.351221 Z" id="Fill-27" fill="#FFFFFF" sketch:type="MSShapeGroup"></path>
                <path d="M56.4911503,133.351221 L56.4911503,127.7406 L59.47344,127.7406 L59.47344,128.795214 L57.6584607,128.795214 L57.6584607,129.841759 L59.7671503,129.841759 L59.7671503,130.888572 L57.6584607,130.888572 L57.6584607,133.351221 L56.4911503,133.351221 L56.4911503,133.351221 Z" id="Stroke-29" stroke="#FFFFFF" stroke-width="0.5" sketch:type="MSShapeGroup"></path>
                <path d="M63.3140524,133.351221 L63.3140524,127.7406 L66.2963421,127.7406 L66.2963421,128.795214 L64.4813628,128.795214 L64.4813628,129.841759 L66.5900524,129.841759 L66.5900524,130.888572 L64.4813628,130.888572 L64.4813628,132.296876 L66.7933903,132.296876 L66.7933903,133.351221 L63.3140524,133.351221 Z" id="Fill-31" fill="#FFFFFF" sketch:type="MSShapeGroup"></path>
                <path d="M63.3140524,133.351221 L63.3140524,127.7406 L66.2963421,127.7406 L66.2963421,128.795214 L64.4813628,128.795214 L64.4813628,129.841759 L66.5900524,129.841759 L66.5900524,130.888572 L64.4813628,130.888572 L64.4813628,132.296876 L66.7933903,132.296876 L66.7933903,133.351221 L63.3140524,133.351221 L63.3140524,133.351221 Z" id="Stroke-33" stroke="#FFFFFF" stroke-width="0.5" sketch:type="MSShapeGroup"></path>
                <path d="M70.2273269,133.351221 L70.2273269,127.7406 L73.2096166,127.7406 L73.2096166,128.795214 L71.3946372,128.795214 L71.3946372,129.841759 L73.5033269,129.841759 L73.5033269,130.888572 L71.3946372,130.888572 L71.3946372,132.296876 L73.7066648,132.296876 L73.7066648,133.351221 L70.2273269,133.351221 Z" id="Fill-35" fill="#FFFFFF" sketch:type="MSShapeGroup"></path>
                <path d="M70.2273269,133.351221 L70.2273269,127.7406 L73.2096166,127.7406 L73.2096166,128.795214 L71.3946372,128.795214 L71.3946372,129.841759 L73.5033269,129.841759 L73.5033269,130.888572 L71.3946372,130.888572 L71.3946372,132.296876 L73.7066648,132.296876 L73.7066648,133.351221 L70.2273269,133.351221 L70.2273269,133.351221 Z" id="Stroke-37" stroke="#FFFFFF" stroke-width="0.5" sketch:type="MSShapeGroup"></path>
                <path d="M83.0299779,129.261842 C83.0299779,128.313201 83.9035779,127.64267 84.6795434,127.64267 C85.23684,127.64267 85.7637434,127.853808 86.1930124,128.365649 L85.2742262,129.035911 C85.1238745,128.877759 84.8748124,128.757263 84.6795434,128.757263 C84.3705021,128.757263 84.1599021,128.945539 84.1599021,129.25458 C84.1599021,129.510366 84.347909,129.743828 84.9431297,129.781752 C85.8993021,129.841732 86.6897917,130.489401 86.6897917,131.57387 C86.6897917,132.66587 85.7790745,133.449097 84.792509,133.449097 C84.1521021,133.449097 83.5122331,133.215635 82.9775297,132.628214 L83.9415021,131.920297 C84.1972883,132.244132 84.4608745,132.326973 84.792509,132.326973 C85.1763228,132.326973 85.4775641,132.018201 85.4775641,131.656711 C85.4775641,131.205118 85.1763228,130.926201 84.6343572,130.865952 C83.6625848,130.752987 83.0299779,130.142973 83.0299779,129.261842" id="Fill-39" fill="#FFFFFF" sketch:type="MSShapeGroup"></path>
                <path d="M83.0299779,129.261842 C83.0299779,128.313201 83.9035779,127.64267 84.6795434,127.64267 C85.23684,127.64267 85.7637434,127.853808 86.1930124,128.365649 L85.2742262,129.035911 C85.1238745,128.877759 84.8748124,128.757263 84.6795434,128.757263 C84.3705021,128.757263 84.1599021,128.945539 84.1599021,129.25458 C84.1599021,129.510366 84.347909,129.743828 84.9431297,129.781752 C85.8993021,129.841732 86.6897917,130.489401 86.6897917,131.57387 C86.6897917,132.66587 85.7790745,133.449097 84.792509,133.449097 C84.1521021,133.449097 83.5122331,133.215635 82.9775297,132.628214 L83.9415021,131.920297 C84.1972883,132.244132 84.4608745,132.326973 84.792509,132.326973 C85.1763228,132.326973 85.4775641,132.018201 85.4775641,131.656711 C85.4775641,131.205118 85.1763228,130.926201 84.6343572,130.865952 C83.6625848,130.752987 83.0299779,130.142973 83.0299779,129.261842 L83.0299779,129.261842 Z" id="Stroke-41" stroke="#FFFFFF" stroke-width="0.5" sketch:type="MSShapeGroup"></path>
                <path d="M90.2069462,130.75296 L90.2069462,127.740546 L91.3742566,127.740546 L91.3742566,130.949036 C91.3742566,131.829898 91.8035255,132.327215 92.6319393,132.327215 C93.5055393,132.327215 93.882091,131.792243 93.882091,130.949036 L93.882091,127.740546 L95.0340703,127.740546 L95.0340703,130.850863 C95.0340703,132.485098 94.1228152,133.44907 92.6319393,133.44907 C90.9901738,133.44907 90.2069462,132.311884 90.2069462,130.75296" id="Fill-43" fill="#FFFFFF" sketch:type="MSShapeGroup"></path>
                <path d="M90.2069462,130.75296 L90.2069462,127.740546 L91.3742566,127.740546 L91.3742566,130.949036 C91.3742566,131.829898 91.8035255,132.327215 92.6319393,132.327215 C93.5055393,132.327215 93.882091,131.792243 93.882091,130.949036 L93.882091,127.740546 L95.0340703,127.740546 L95.0340703,130.850863 C95.0340703,132.485098 94.1228152,133.44907 92.6319393,133.44907 C90.9901738,133.44907 90.2069462,132.311884 90.2069462,130.75296 L90.2069462,130.75296 Z" id="Stroke-45" stroke="#FFFFFF" stroke-width="0.5" sketch:type="MSShapeGroup"></path>
                <path d="M100.645121,131.438257 C101.458204,131.438257 101.902804,130.843306 101.902804,130.120595 C101.902804,129.465126 101.473535,128.795133 100.712901,128.795133 L100.004714,128.795133 L100.004714,131.438257 L100.645121,131.438257 Z M98.8374041,133.35114 L98.8374041,127.740519 L100.750287,127.740519 C102.128735,127.740519 103.09997,128.862912 103.09997,129.99983 C103.09997,131.438257 102.083549,132.500133 100.674977,132.500133 L100.004714,132.500133 L100.004714,133.35114 L98.8374041,133.35114 Z" id="Fill-47" fill="#FFFFFF" sketch:type="MSShapeGroup"></path>
                <path d="M100.645121,131.438257 C101.458204,131.438257 101.902804,130.843306 101.902804,130.120595 C101.902804,129.465126 101.473535,128.795133 100.712901,128.795133 L100.004714,128.795133 L100.004714,131.438257 L100.645121,131.438257 L100.645121,131.438257 Z M98.8374041,133.35114 L98.8374041,127.740519 L100.750287,127.740519 C102.128735,127.740519 103.09997,128.862912 103.09997,129.99983 C103.09997,131.438257 102.083549,132.500133 100.674977,132.500133 L100.004714,132.500133 L100.004714,133.35114 L98.8374041,133.35114 L98.8374041,133.35114 Z" id="Stroke-49" stroke="#FFFFFF" stroke-width="0.5" sketch:type="MSShapeGroup"></path>
                <path d="M108.454562,131.438257 C109.267645,131.438257 109.712245,130.843306 109.712245,130.120595 C109.712245,129.465126 109.282976,128.795133 108.522341,128.795133 L107.814155,128.795133 L107.814155,131.438257 L108.454562,131.438257 Z M106.646845,133.35114 L106.646845,127.740519 L108.559728,127.740519 C109.938176,127.740519 110.90941,128.862912 110.90941,129.99983 C110.90941,131.438257 109.89299,132.500133 108.484417,132.500133 L107.814155,132.500133 L107.814155,133.35114 L106.646845,133.35114 Z" id="Fill-51" fill="#FFFFFF" sketch:type="MSShapeGroup"></path>
                <path d="M108.454562,131.438257 C109.267645,131.438257 109.712245,130.843306 109.712245,130.120595 C109.712245,129.465126 109.282976,128.795133 108.522341,128.795133 L107.814155,128.795133 L107.814155,131.438257 L108.454562,131.438257 L108.454562,131.438257 Z M106.646845,133.35114 L106.646845,127.740519 L108.559728,127.740519 C109.938176,127.740519 110.90941,128.862912 110.90941,129.99983 C110.90941,131.438257 109.89299,132.500133 108.484417,132.500133 L107.814155,132.500133 L107.814155,133.35114 L106.646845,133.35114 L106.646845,133.35114 Z" id="Stroke-53" stroke="#FFFFFF" stroke-width="0.5" sketch:type="MSShapeGroup"></path>
                <path d="M115.62365,127.740492 L115.62365,132.296768 L117.88296,132.296768 L117.88296,133.351113 L114.456339,133.351113 L114.456339,127.740492 L115.62365,127.740492 Z" id="Fill-55" fill="#FFFFFF" sketch:type="MSShapeGroup"></path>
                <path d="M115.62365,127.740492 L115.62365,132.296768 L117.88296,132.296768 L117.88296,133.351113 L114.456339,133.351113 L114.456339,127.740492 L115.62365,127.740492 L115.62365,127.740492 Z" id="Stroke-57" stroke="#FFFFFF" stroke-width="0.5" sketch:type="MSShapeGroup"></path>
                <path d="M124.028311,127.740492 L125.25587,127.740492 L122.951373,131.543934 L122.951373,133.351113 L121.791594,133.351113 L121.791594,131.649099 L119.411787,127.740492 L120.752311,127.740492 L122.386546,130.496851 L124.028311,127.740492 Z" id="Fill-59" fill="#FFFFFF" sketch:type="MSShapeGroup"></path>
                <path d="M124.028311,127.740492 L125.25587,127.740492 L122.951373,131.543934 L122.951373,133.351113 L121.791594,133.351113 L121.791594,131.649099 L119.411787,127.740492 L120.752311,127.740492 L122.386546,130.496851 L124.028311,127.740492 L124.028311,127.740492 Z" id="Stroke-61" stroke="#FFFFFF" stroke-width="0.5" sketch:type="MSShapeGroup"></path>
                <path d="M55.5295717,29.3682103 C54.8461303,30.8719966 50.2070131,32.0129483 49.3118959,32.2316172 C46.6569372,32.880631 42.703951,33.4551414 38.952151,32.5048862 C34.9104062,31.4812034 30.2952269,28.4470034 29.9843028,19.9829276 C22.0000614,26.6056655 15.3708683,34.9048655 10.7156131,44.1349552 C5.3898269,54.6940034 2.68968207,66.0879207 2.68968207,78.0001345 C2.68995103,87.5823 4.46431655,96.9159414 7.96355793,105.741776 L6.49688897,109.2195 C2.18483379,99.3632586 -0.000242068966,88.8684931 2.68965517e-05,78.0060517 L2.68965517e-05,78.0001345 C2.68965517e-05,65.6632241 2.79726828,53.8618241 8.31402,42.9238034 C13.5747166,32.4938586 21.2682062,23.2115897 30.5631166,16.0810448 L32.9302821,14.2652586 L32.7231786,17.241631 C32.2998269,23.326169 33.9311028,27.3332172 37.57182,29.1511552 C43.3231097,32.0229 52.2866545,28.8633621 53.3167924,27.9706655 C53.3167924,27.9706655 53.9975441,27.2269759 54.9558683,27.8493621 C55.8020338,28.3985897 55.5295717,29.3682103 55.5295717,29.3682103" id="Fill-63" fill="#FFFFFF" sketch:type="MSShapeGroup"></path>
                <path d="M142.55436,61.8946407 C140.669181,61.8946407 138.827574,61.3505234 136.884029,60.5011303 C136.017691,60.1224269 135.073353,59.4941234 134.07307,58.8292407 C131.767767,57.2961372 129.15396,55.558889 126.687546,56.1239855 C125.086126,56.4911234 123.574808,57.8617717 122.195553,60.1977372 L119.879222,58.8303166 C121.67376,55.7912752 123.704181,54.0483786 126.086408,53.5023786 C129.681132,52.6771924 132.942339,54.8469372 135.562332,56.5892959 C136.461753,57.1874752 137.310877,57.7523028 137.961505,58.0365993 C142.075332,59.8349028 145.11007,59.941951 149.890394,55.5327993 C145.244553,40.6657303 135.840443,27.3167028 123.341884,17.8752062 C110.196194,7.94473034 94.5155048,2.69559931 77.9942979,2.69559931 C63.1613876,2.69559931 47.1452979,8.01116483 34.8293669,16.160551 L35.0117255,12.9092959 C47.769029,4.46808207 62.6323324,0.00594413793 77.9942979,0.00594413793 C95.1053462,0.00594413793 111.347098,5.44308207 124.963208,15.7288614 C138.135526,25.6797786 147.989077,39.8217166 152.708615,55.5497441 L152.943422,56.3321648 L152.357077,56.9012959 C148.605546,60.5420131 145.526429,61.8946407 142.55436,61.8946407" id="Fill-65" fill="#FFFFFF" sketch:type="MSShapeGroup"></path>
                <g id="Group-69">
                    <mask id="mask-2" sketch:name="Clip 68" fill="white">
                        <use xlink:href="#path-1"></use>
                    </mask>
                    <g id="Clip-68"></g>
                    <path d="M136.050854,118.420999 C135.397806,118.420999 134.901296,118.606854 134.647661,118.958392 C134.44002,119.246185 134.419041,119.636992 134.592792,119.977502 C134.877896,120.536412 135.595765,120.858633 136.56162,120.860516 L136.573454,120.860516 C138.208227,120.860516 139.122441,120.085626 139.675972,118.665219 C138.761489,118.707716 137.767661,118.637516 136.67082,118.470488 C136.451882,118.437406 136.24451,118.420999 136.050854,118.420999 M136.574799,123.550171 L136.555434,123.550171 C134.575041,123.546137 132.945379,122.667157 132.196848,121.19995 C131.562627,119.956523 131.665641,118.494426 132.46662,117.384943 C133.406117,116.082343 135.086344,115.508102 137.074806,115.811226 C138.311241,115.999233 139.361551,116.061902 140.302392,115.906171 C140.330634,115.690999 140.35753,115.46964 140.382544,115.242364 C140.398682,115.09793 140.413744,114.960757 140.428806,114.831923 L142.39333,115.063233 C143.857579,114.049233 145.175241,112.093047 146.797103,108.657281 C151.111579,98.9887779 153.298806,88.6750262 153.298806,78.0000538 C153.298806,72.3060538 152.661358,66.6322262 151.403675,61.1367228 L151.285061,60.6402124 L153.559165,58.5939228 L154.022592,60.5240193 C155.328151,66.2287779 155.988461,72.1043297 155.988461,78.0000538 C155.988461,89.0596469 153.720275,99.7472607 149.24711,109.766764 L149.235813,109.792585 C147.090813,114.33864 145.174703,116.886012 142.675206,117.996571 C142.097199,120.547978 140.665765,123.550171 136.574799,123.550171" id="Fill-67" fill="#FFFFFF" sketch:type="MSShapeGroup" mask="url(#mask-2)"></path>
                </g>
            </g>
        </g>
    </g>
</svg>