<?xml version="1.0" encoding="UTF-8" standalone="no"?>
<svg width="629px" height="122px" viewBox="0 0 629 122" version="1.1" xmlns="http://www.w3.org/2000/svg" xmlns:xlink="http://www.w3.org/1999/xlink" xmlns:sketch="http://www.bohemiancoding.com/sketch/ns">
    <!-- Generator: Sketch 3.4.2 (15857) - http://www.bohemiancoding.com/sketch -->
    <title>LIFE’S TOO SHORT</title>
    <desc>Created with Sketch.</desc>
    <defs></defs>
    <g id="Welcome" stroke="none" stroke-width="1" fill="none" fill-rule="evenodd" sketch:type="MSPage">
        <g id="Desktop-HD-Copy" sketch:type="MSArtboardGroup" transform="translate(-406.000000, -426.000000)" fill="#FFFFFF">
            <path d="M497.501,469.856 C502.977,458.016 509.711,446.62 513.559,439.59 C516.593,434.114 516.297,431.006 515.409,429.156 C514.965,428.194 514.299,428.12 513.633,429.008 C509.119,435.298 496.909,457.72 493.357,466.896 C492.617,468.82 492.617,469.93 493.135,471.188 C493.505,472.076 494.393,473.408 495.059,474.37 C495.873,475.554 496.613,475.554 498.389,475.11 C502.681,474 510.821,472.15 514.521,472.224 C515.483,472.224 515.483,471.706 515.261,471.114 C514.447,468.894 512.449,467.488 508.749,467.784 C505.937,468.006 501.719,468.746 497.501,469.856 L497.501,469.856 Z M540.2915,428.416 C534.2975,437.074 523.8635,456.166 520.2375,466.23 C518.6095,470.744 519.4975,473.334 520.5335,474.444 C521.1255,475.11 521.4215,475.036 521.7175,474.296 C527.1195,462.16 535.2595,447.878 539.8475,439.812 C543.0295,434.188 543.1035,430.636 542.0675,428.49 C541.6235,427.602 540.9575,427.454 540.2915,428.416 L540.2915,428.416 Z M550.522,435.076 C544.01,445.658 536.24,460.162 534.02,466.674 C532.466,471.262 533.206,473.63 534.612,474.814 C535.13,475.258 535.574,475.258 535.87,474.518 C538.016,469.56 540.754,464.01 543.566,458.534 C547.784,457.498 553.482,456.388 557.182,456.462 C558.07,456.462 558.218,456.018 557.996,455.352 C557.33,453.132 555.48,451.578 551.78,451.8 C550.448,451.874 548.746,452.022 546.822,452.392 C550.448,445.732 553.926,439.738 556.516,435.52 C561.03,434.854 566.21,433.374 571.76,433.448 C572.722,433.448 572.87,432.93 572.648,432.338 C571.686,430.044 569.762,428.564 566.58,428.564 C562.436,428.564 554.592,430.71 548.45,430.414 C547.71,430.414 547.488,430.71 547.636,431.302 C548.006,432.782 548.82,434.262 550.522,435.076 L550.522,435.076 Z M578.5125,435.15 C572.2965,444.77 564.8965,458.534 561.4925,467.636 C560.7525,469.634 560.7525,470.596 561.4185,471.854 C561.9365,472.816 562.3805,473.926 562.9725,474.592 C563.8605,475.702 564.6745,475.702 566.0805,475.332 C570.2245,474.222 578.2905,472.298 582.4345,472.372 C583.3225,472.372 583.3965,471.928 583.1745,471.262 C582.3605,469.042 580.5105,467.858 576.8845,468.006 C573.8505,468.154 568.9665,469.19 565.4145,470.3 C566.9685,466.822 568.9665,462.752 571.1125,458.608 C575.2565,457.572 580.8065,456.536 584.8025,456.536 C585.7645,456.536 585.7645,456.092 585.5425,455.426 C584.8025,453.132 583.1745,451.948 579.4745,452.096 C578.1425,452.17 576.2185,452.318 574.2205,452.688 C577.8465,446.102 581.4725,439.664 584.4325,435.224 C588.9465,434.484 594.1265,433.152 599.4545,433.226 C600.3425,433.374 600.4905,432.856 600.2685,432.264 C599.3805,429.822 597.7525,428.564 594.6445,428.638 C590.5005,428.712 582.3605,430.858 576.2185,430.488 C575.4785,430.414 575.2565,430.71 575.4045,431.376 C575.8485,432.93 576.6625,434.41 578.5125,435.15 L578.5125,435.15 Z M603.099,441.44 C605.097,439.072 608.575,434.188 610.277,431.45 C611.091,430.118 611.757,428.416 611.239,427.01 C610.943,426.196 610.351,425.9 609.389,426.936 C606.873,429.748 602.581,437.518 600.879,441.144 C600.583,441.884 600.731,442.402 601.175,442.476 C601.693,442.55 602.285,442.402 603.099,441.44 L603.099,441.44 Z M599.9355,464.084 C599.2695,464.306 598.9735,464.824 599.7875,465.786 C610.2215,478.366 623.0975,476.96 627.5375,471.854 C630.7935,468.08 631.1635,464.676 628.3515,462.678 C624.2075,459.718 614.7355,455.796 614.9575,450.986 C615.3275,441.736 633.5315,430.414 636.0475,433.004 C637.8235,434.854 632.2735,440.996 630.7195,444.548 C629.1655,448.026 630.0535,450.32 631.4595,451.726 C632.2735,452.54 632.7175,452.17 633.0875,451.504 C634.1235,449.654 636.2695,445.88 638.1935,443.29 C639.3035,441.736 641.0795,438.85 640.3395,435.89 C639.8215,433.818 638.4895,431.376 636.6395,429.674 C634.1975,427.454 630.6455,428.046 627.0935,429.526 C620.5075,432.338 609.0375,440.996 609.0375,451.134 C609.0375,458.756 620.7295,463.344 624.6515,466.674 C625.6875,467.562 626.0575,469.116 624.7995,470.522 C623.8375,471.336 622.2835,471.854 620.2115,471.854 C615.4015,471.854 610.3695,468.006 607.4095,465.638 C605.4115,464.01 602.3775,463.344 599.9355,464.084 L599.9355,464.084 Z M673.6025,435.15 C666.7205,445.584 658.7285,461.642 657.0265,467.71 C656.0645,471.262 656.9525,473.482 657.9885,474.444 C658.5065,474.962 658.8765,474.962 659.1725,474.222 C664.9445,460.68 671.2345,450.32 675.6745,442.254 C677.6725,438.628 678.1905,436.186 678.1165,434.41 C682.4085,433.67 687.0705,432.93 690.6965,433.3 C691.6585,433.374 691.8065,432.782 691.5845,432.19 C690.4745,429.304 687.6625,428.49 684.5545,428.416 C680.3365,428.268 668.0525,431.006 661.4665,430.488 C660.7265,430.414 660.4305,430.784 660.6525,431.45 C661.4665,434.188 664.6485,435.816 669.0885,435.668 C670.4205,435.594 671.9005,435.446 673.6025,435.15 L673.6025,435.15 Z M713.877,429.822 C711.805,427.676 708.105,426.862 703.813,428.342 C695.451,431.302 681.613,444.992 681.613,460.754 C681.613,466.822 683.981,472.372 690.049,474.592 C700.113,478.292 709.437,469.634 715.431,458.608 C720.981,448.396 723.053,433.818 713.877,429.822 L713.877,429.822 Z M710.029,456.536 C703.813,467.932 695.081,473.852 690.197,471.78 C685.165,469.634 685.313,457.128 692.417,446.102 C699.373,435.298 708.771,430.266 712.397,431.598 C716.467,433.078 716.763,444.178 710.029,456.536 L710.029,456.536 Z M754.4475,429.822 C752.3755,427.676 748.6755,426.862 744.3835,428.342 C736.0215,431.302 722.1835,444.992 722.1835,460.754 C722.1835,466.822 724.5515,472.372 730.6195,474.592 C740.6835,478.292 750.0075,469.634 756.0015,458.608 C761.5515,448.396 763.6235,433.818 754.4475,429.822 L754.4475,429.822 Z M750.5995,456.536 C744.3835,467.932 735.6515,473.852 730.7675,471.78 C725.7355,469.634 725.8835,457.128 732.9875,446.102 C739.9435,435.298 749.3415,430.266 752.9675,431.598 C757.0375,433.078 757.3335,444.178 750.5995,456.536 L750.5995,456.536 Z M774.4645,464.084 C773.7985,464.306 773.5025,464.824 774.3165,465.786 C784.7505,478.366 797.6265,476.96 802.0665,471.854 C805.3225,468.08 805.6925,464.676 802.8805,462.678 C798.7365,459.718 789.2645,455.796 789.4865,450.986 C789.8565,441.736 808.0605,430.414 810.5765,433.004 C812.3525,434.854 806.8025,440.996 805.2485,444.548 C803.6945,448.026 804.5825,450.32 805.9885,451.726 C806.8025,452.54 807.2465,452.17 807.6165,451.504 C808.6525,449.654 810.7985,445.88 812.7225,443.29 C813.8325,441.736 815.6085,438.85 814.8685,435.89 C814.3505,433.818 813.0185,431.376 811.1685,429.674 C808.7265,427.454 805.1745,428.046 801.6225,429.526 C795.0365,432.338 783.5665,440.996 783.5665,451.134 C783.5665,458.756 795.2585,463.344 799.1805,466.674 C800.2165,467.562 800.5865,469.116 799.3285,470.522 C798.3665,471.336 796.8125,471.854 794.7405,471.854 C789.9305,471.854 784.8985,468.006 781.9385,465.638 C779.9405,464.01 776.9065,463.344 774.4645,464.084 L774.4645,464.084 Z M848.927,439.59 C852.035,434.04 852.257,430.562 851.221,428.416 C850.777,427.454 850.111,427.38 849.371,428.342 C846.411,432.264 839.899,444.03 835.089,453.576 C830.205,453.872 825.617,455.13 820.511,455.796 C823.767,449.654 826.801,444.4 828.947,440.256 C831.685,435.002 831.907,431.376 830.797,429.304 C830.353,428.49 829.687,428.342 829.021,429.23 C825.987,433.522 819.105,446.324 814.369,456.166 C813.407,456.166 812.371,456.018 811.261,455.944 C810.003,455.87 809.855,456.166 810.299,457.054 C810.595,457.646 811.187,458.682 812.815,459.422 C811.335,462.752 810.077,465.416 809.633,466.97 C808.375,471.484 808.893,473.556 810.003,475.11 C810.447,475.776 811.039,475.554 811.335,474.814 C813.481,469.856 815.775,464.972 818.069,460.384 C821.547,460.384 827.245,459.422 832.647,458.756 C831.167,461.79 830.057,464.38 829.539,465.86 C828.059,470.374 828.725,472.52 829.761,474 C830.205,474.666 830.723,474.592 831.019,473.852 C833.461,468.302 836.051,462.974 838.567,458.164 C840.121,458.09 841.527,458.164 842.711,458.386 C843.451,458.534 843.673,458.164 843.525,457.572 C843.229,456.314 842.341,455.056 840.639,454.316 C843.821,448.544 846.707,443.586 848.927,439.59 L848.927,439.59 Z M879.8035,429.822 C877.7315,427.676 874.0315,426.862 869.7395,428.342 C861.3775,431.302 847.5395,444.992 847.5395,460.754 C847.5395,466.822 849.9075,472.372 855.9755,474.592 C866.0395,478.292 875.3635,469.634 881.3575,458.608 C886.9075,448.396 888.9795,433.818 879.8035,429.822 L879.8035,429.822 Z M875.9555,456.536 C869.7395,467.932 861.0075,473.852 856.1235,471.78 C851.0915,469.634 851.2395,457.128 858.3435,446.102 C865.2995,435.298 874.6975,430.266 878.3235,431.598 C882.3935,433.078 882.6895,444.178 875.9555,456.536 L875.9555,456.536 Z M891.736,459.57 C895.214,463.418 899.062,468.228 903.946,474.888 C904.39,475.554 904.76,475.332 905.13,474.74 C906.092,473.26 905.796,470.744 904.76,468.746 C903.206,465.638 900.542,462.086 897.73,458.608 C905.944,456.684 913.936,452.022 917.932,446.694 C920.744,442.92 921.78,438.406 920.226,433.966 C918.45,428.934 915.194,427.824 911.42,427.972 C906.462,428.194 900.912,431.228 894.696,431.968 C893.734,432.116 893.512,432.486 893.882,433.226 C894.77,434.854 896.102,435.964 898.618,436.186 C892.106,446.398 885.15,460.458 883.3,467.192 C882.19,471.188 882.93,473.408 883.966,474.518 C884.484,475.036 884.854,474.962 885.15,474.222 C887.592,468.154 889.738,463.492 891.736,459.57 L891.736,459.57 Z M903.132,435.742 C908.016,434.41 915.416,430.562 917.044,434.706 C919.19,439.96 910.828,450.764 894.474,454.39 C896.472,450.764 898.322,447.656 900.32,444.104 C902.318,440.404 903.132,437.814 903.132,435.742 L903.132,435.742 Z M937.3385,435.15 C930.4565,445.584 922.4645,461.642 920.7625,467.71 C919.8005,471.262 920.6885,473.482 921.7245,474.444 C922.2425,474.962 922.6125,474.962 922.9085,474.222 C928.6805,460.68 934.9705,450.32 939.4105,442.254 C941.4085,438.628 941.9265,436.186 941.8525,434.41 C946.1445,433.67 950.8065,432.93 954.4325,433.3 C955.3945,433.374 955.5425,432.782 955.3205,432.19 C954.2105,429.304 951.3985,428.49 948.2905,428.416 C944.0725,428.268 931.7885,431.006 925.2025,430.488 C924.4625,430.414 924.1665,430.784 924.3885,431.45 C925.2025,434.188 928.3845,435.816 932.8245,435.668 C934.1565,435.594 935.6365,435.446 937.3385,435.15 L937.3385,435.15 Z M423.62125,507.15 C416.73925,517.584 408.74725,533.642 407.04525,539.71 C406.08325,543.262 406.97125,545.482 408.00725,546.444 C408.52525,546.962 408.89525,546.962 409.19125,546.222 C414.96325,532.68 421.25325,522.32 425.69325,514.254 C427.69125,510.628 428.20925,508.186 428.13525,506.41 C432.42725,505.67 437.08925,504.93 440.71525,505.3 C441.67725,505.374 441.82525,504.782 441.60325,504.19 C440.49325,501.304 437.68125,500.49 434.57325,500.416 C430.35525,500.268 418.07125,503.006 411.48525,502.488 C410.74525,502.414 410.44925,502.784 410.67125,503.45 C411.48525,506.188 414.66725,507.816 419.10725,507.668 C420.43925,507.594 421.91925,507.446 423.62125,507.15 L423.62125,507.15 Z M463.89575,501.822 C461.82375,499.676 458.12375,498.862 453.83175,500.342 C445.46975,503.302 431.63175,516.992 431.63175,532.754 C431.63175,538.822 433.99975,544.372 440.06775,546.592 C450.13175,550.292 459.45575,541.634 465.44975,530.608 C470.99975,520.396 473.07175,505.818 463.89575,501.822 L463.89575,501.822 Z M460.04775,528.536 C453.83175,539.932 445.09975,545.852 440.21575,543.78 C435.18375,541.634 435.33175,529.128 442.43575,518.102 C449.39175,507.298 458.78975,502.266 462.41575,503.598 C466.48575,505.078 466.78175,516.178 460.04775,528.536 L460.04775,528.536 Z M501.89475,508.926 C496.78875,516.548 490.64675,528.092 488.35275,535.048 C486.79875,539.858 487.16875,540.968 488.57475,542.892 C489.61075,544.372 490.79475,545.334 491.68275,546.074 C492.94075,547.11 494.27275,547.332 496.41875,546.592 C516.25075,540.006 529.42275,518.398 522.61475,506.558 C519.87675,501.748 516.17675,499.306 511.44075,500.046 C506.63075,500.786 502.93075,503.746 497.82475,504.412 C496.86275,504.56 496.78875,505.004 497.08475,505.818 C497.52875,506.928 499.00875,508.778 501.89475,508.926 L501.89475,508.926 Z M505.81675,508.186 C510.99675,506.484 516.39875,502.562 518.98875,506.706 C523.35475,513.662 514.03075,534.826 493.82875,542.522 C491.60875,543.336 491.09075,542.3 492.05275,539.192 C494.19875,532.384 500.19275,522.542 503.89275,515.956 C505.74275,512.7 506.18675,510.036 505.81675,508.186 L505.81675,508.186 Z M529.44125,531.57 C532.91925,535.418 536.76725,540.228 541.65125,546.888 C542.09525,547.554 542.46525,547.332 542.83525,546.74 C543.79725,545.26 543.50125,542.744 542.46525,540.746 C540.91125,537.638 538.24725,534.086 535.43525,530.608 C543.64925,528.684 551.64125,524.022 555.63725,518.694 C558.44925,514.92 559.48525,510.406 557.93125,505.966 C556.15525,500.934 552.89925,499.824 549.12525,499.972 C544.16725,500.194 538.61725,503.228 532.40125,503.968 C531.43925,504.116 531.21725,504.486 531.58725,505.226 C532.47525,506.854 533.80725,507.964 536.32325,508.186 C529.81125,518.398 522.85525,532.458 521.00525,539.192 C519.89525,543.188 520.63525,545.408 521.67125,546.518 C522.18925,547.036 522.55925,546.962 522.85525,546.222 C525.29725,540.154 527.44325,535.492 529.44125,531.57 L529.44125,531.57 Z M540.83725,507.742 C545.72125,506.41 553.12125,502.562 554.74925,506.706 C556.89525,511.96 548.53325,522.764 532.17925,526.39 C534.17725,522.764 536.02725,519.656 538.02525,516.104 C540.02325,512.404 540.83725,509.814 540.83725,507.742 L540.83725,507.742 Z M573.78575,500.416 C567.79175,509.074 557.35775,528.166 553.73175,538.23 C552.10375,542.744 552.99175,545.334 554.02775,546.444 C554.61975,547.11 554.91575,547.036 555.21175,546.296 C560.61375,534.16 568.75375,519.878 573.34175,511.812 C576.52375,506.188 576.59775,502.636 575.56175,500.49 C575.11775,499.602 574.45175,499.454 573.78575,500.416 L573.78575,500.416 Z M584.83025,514.254 C583.49825,524.762 583.20225,534.752 583.57225,539.266 C583.94225,544.002 584.97825,545.778 587.19825,546.962 C588.01225,547.406 588.38225,547.258 588.67825,546.518 C593.04425,536.676 602.44225,518.916 606.80825,511.664 C610.13825,506.114 610.21225,503.154 609.10225,500.934 C608.65825,500.12 607.99225,499.898 607.40025,500.786 C601.85025,509.37 593.34025,524.836 588.30825,536.232 C588.82625,525.872 589.56625,516.622 590.75025,509.592 C591.56425,504.486 590.97225,502.414 588.23425,500.416 C587.49425,499.898 586.97625,499.972 586.31025,501.082 C580.46425,510.924 570.77025,528.462 567.14425,538.452 C565.66425,542.448 566.25625,545.334 567.51425,546.74 C568.03225,547.332 568.55025,547.184 568.77225,546.444 C571.73225,537.564 579.28025,523.8 584.83025,514.254 L584.83025,514.254 Z M609.71275,530.46 C613.33875,535.714 616.59475,541.042 619.40675,546.518 C619.77675,547.184 620.29475,547.184 620.73875,546.666 C621.84875,545.26 622.51475,542.67 620.73875,538.452 C619.85075,536.38 617.85275,532.976 615.48475,529.202 C625.47475,522.172 635.53875,513.144 638.86875,508.63 C641.53275,505.004 641.60675,502.488 641.16275,500.86 C640.86675,500.194 640.27475,500.12 639.75675,500.712 C632.72675,508.334 622.36675,517.584 612.67275,524.836 C615.33675,519.878 617.77875,515.512 619.70275,512.034 C622.73675,506.484 622.36675,502.932 621.40475,501.23 C620.81275,500.268 620.29475,500.194 619.62875,501.082 C615.11475,507.372 602.38675,532.458 600.53675,538.748 C599.20475,543.188 599.79675,545.334 600.90675,546.888 C601.35075,547.48 601.79475,547.332 602.09075,546.666 C604.53275,540.968 607.12275,535.418 609.71275,530.46 L609.71275,530.46 Z M645.34375,536.084 C644.67775,536.306 644.38175,536.824 645.19575,537.786 C655.62975,550.366 668.50575,548.96 672.94575,543.854 C676.20175,540.08 676.57175,536.676 673.75975,534.678 C669.61575,531.718 660.14375,527.796 660.36575,522.986 C660.73575,513.736 678.93975,502.414 681.45575,505.004 C683.23175,506.854 677.68175,512.996 676.12775,516.548 C674.57375,520.026 675.46175,522.32 676.86775,523.726 C677.68175,524.54 678.12575,524.17 678.49575,523.504 C679.53175,521.654 681.67775,517.88 683.60175,515.29 C684.71175,513.736 686.48775,510.85 685.74775,507.89 C685.22975,505.818 683.89775,503.376 682.04775,501.674 C679.60575,499.454 676.05375,500.046 672.50175,501.526 C665.91575,504.338 654.44575,512.996 654.44575,523.134 C654.44575,530.756 666.13775,535.344 670.05975,538.674 C671.09575,539.562 671.46575,541.116 670.20775,542.522 C669.24575,543.336 667.69175,543.854 665.61975,543.854 C660.80975,543.854 655.77775,540.006 652.81775,537.638 C650.81975,536.01 647.78575,535.344 645.34375,536.084 L645.34375,536.084 Z M719.80625,511.59 C722.91425,506.04 723.13625,502.562 722.10025,500.416 C721.65625,499.454 720.99025,499.38 720.25025,500.342 C717.29025,504.264 710.77825,516.03 705.96825,525.576 C701.08425,525.872 696.49625,527.13 691.39025,527.796 C694.64625,521.654 697.68025,516.4 699.82625,512.256 C702.56425,507.002 702.78625,503.376 701.67625,501.304 C701.23225,500.49 700.56625,500.342 699.90025,501.23 C696.86625,505.522 689.98425,518.324 685.24825,528.166 C684.28625,528.166 683.25025,528.018 682.14025,527.944 C680.88225,527.87 680.73425,528.166 681.17825,529.054 C681.47425,529.646 682.06625,530.682 683.69425,531.422 C682.21425,534.752 680.95625,537.416 680.51225,538.97 C679.25425,543.484 679.77225,545.556 680.88225,547.11 C681.32625,547.776 681.91825,547.554 682.21425,546.814 C684.36025,541.856 686.65425,536.972 688.94825,532.384 C692.42625,532.384 698.12425,531.422 703.52625,530.756 C702.04625,533.79 700.93625,536.38 700.41825,537.86 C698.93825,542.374 699.60425,544.52 700.64025,546 C701.08425,546.666 701.60225,546.592 701.89825,545.852 C704.34025,540.302 706.93025,534.974 709.44625,530.164 C711.00025,530.09 712.40625,530.164 713.59025,530.386 C714.33025,530.534 714.55225,530.164 714.40425,529.572 C714.10825,528.314 713.22025,527.056 711.51825,526.316 C714.70025,520.544 717.58625,515.586 719.80625,511.59 L719.80625,511.59 Z M735.36475,500.416 C729.37075,509.074 718.93675,528.166 715.31075,538.23 C713.68275,542.744 714.57075,545.334 715.60675,546.444 C716.19875,547.11 716.49475,547.036 716.79075,546.296 C722.19275,534.16 730.33275,519.878 734.92075,511.812 C738.10275,506.188 738.17675,502.636 737.14075,500.49 C736.69675,499.602 736.03075,499.454 735.36475,500.416 L735.36475,500.416 Z M752.40325,507.15 C745.52125,517.584 737.52925,533.642 735.82725,539.71 C734.86525,543.262 735.75325,545.482 736.78925,546.444 C737.30725,546.962 737.67725,546.962 737.97325,546.222 C743.74525,532.68 750.03525,522.32 754.47525,514.254 C756.47325,510.628 756.99125,508.186 756.91725,506.41 C761.20925,505.67 765.87125,504.93 769.49725,505.3 C770.45925,505.374 770.60725,504.782 770.38525,504.19 C769.27525,501.304 766.46325,500.49 763.35525,500.416 C759.13725,500.268 746.85325,503.006 740.26725,502.488 C739.52725,502.414 739.23125,502.784 739.45325,503.45 C740.26725,506.188 743.44925,507.816 747.88925,507.668 C749.22125,507.594 750.70125,507.446 752.40325,507.15 L752.40325,507.15 Z M783.05775,507.15 C776.17575,517.584 768.18375,533.642 766.48175,539.71 C765.51975,543.262 766.40775,545.482 767.44375,546.444 C767.96175,546.962 768.33175,546.962 768.62775,546.222 C774.39975,532.68 780.68975,522.32 785.12975,514.254 C787.12775,510.628 787.64575,508.186 787.57175,506.41 C791.86375,505.67 796.52575,504.93 800.15175,505.3 C801.11375,505.374 801.26175,504.782 801.03975,504.19 C799.92975,501.304 797.11775,500.49 794.00975,500.416 C789.79175,500.268 777.50775,503.006 770.92175,502.488 C770.18175,502.414 769.88575,502.784 770.10775,503.45 C770.92175,506.188 774.10375,507.816 778.54375,507.668 C779.87575,507.594 781.35575,507.446 783.05775,507.15 L783.05775,507.15 Z M806.90425,531.422 C816.00625,521.58 822.37025,515.956 827.69825,510.776 C832.06425,506.484 832.80425,503.228 832.21225,501.082 C831.99025,500.268 831.47225,500.046 830.65825,500.712 C824.81225,505.892 814.37825,516.104 807.49625,523.726 C807.79225,518.176 808.38425,513.366 808.60625,509.222 C808.90225,503.894 807.79225,501.748 806.01625,500.638 C805.35025,500.194 804.68425,500.268 804.46225,501.452 C803.05625,508.482 802.46425,519.804 802.31625,528.832 C800.24425,532.976 798.54225,536.898 797.72825,539.562 C796.61825,543.41 797.35825,546 798.46825,546.962 C799.06025,547.48 799.57825,547.48 799.87425,546.74 C801.42825,542.3 803.79625,536.972 806.90425,531.422 L806.90425,531.422 Z M868.73125,530.756 C863.10725,541.782 855.26325,546.74 850.52725,542.892 C846.90125,539.932 846.16125,528.98 852.67325,518.176 C859.33325,507.15 870.58125,501.156 872.65325,503.376 C874.35525,505.152 871.69125,509.37 870.50725,513.292 C869.39725,516.992 870.58125,519.286 872.28325,520.396 C873.17125,520.988 873.68925,520.544 873.91125,519.952 C874.72525,517.806 875.76125,514.92 876.87125,512.626 C877.98125,510.332 878.20325,508.26 877.53725,506.114 C876.94525,504.264 875.24325,502.118 873.61525,500.712 C871.24725,498.64 867.62125,498.936 863.62525,500.49 C855.33725,503.672 842.16525,517.066 842.46125,532.754 C842.60925,538.822 845.49525,543.41 848.82525,545.186 C852.82125,547.332 859.03725,547.406 864.29125,543.632 C867.39925,541.412 872.13525,535.862 870.28525,530.904 C869.91525,529.942 869.10125,529.942 868.73125,530.756 L868.73125,530.756 Z M908.78375,501.822 C906.71175,499.676 903.01175,498.862 898.71975,500.342 C890.35775,503.302 876.51975,516.992 876.51975,532.754 C876.51975,538.822 878.88775,544.372 884.95575,546.592 C895.01975,550.292 904.34375,541.634 910.33775,530.608 C915.88775,520.396 917.95975,505.818 908.78375,501.822 L908.78375,501.822 Z M904.93575,528.536 C898.71975,539.932 889.98775,545.852 885.10375,543.78 C880.07175,541.634 880.21975,529.128 887.32375,518.102 C894.27975,507.298 903.67775,502.266 907.30375,503.598 C911.37375,505.078 911.66975,516.178 904.93575,528.536 L904.93575,528.536 Z M929.22625,507.076 C922.71425,517.658 914.94425,532.162 912.72425,538.674 C911.17025,543.262 911.91025,545.63 913.31625,546.814 C913.83425,547.258 914.27825,547.258 914.57425,546.518 C916.72025,541.56 919.45825,536.01 922.27025,530.534 C926.48825,529.498 932.18625,528.388 935.88625,528.462 C936.77425,528.462 936.92225,528.018 936.70025,527.352 C936.03425,525.132 934.18425,523.578 930.48425,523.8 C929.15225,523.874 927.45025,524.022 925.52625,524.392 C929.15225,517.732 932.63025,511.738 935.22025,507.52 C939.73425,506.854 944.91425,505.374 950.46425,505.448 C951.42625,505.448 951.57425,504.93 951.35225,504.338 C950.39025,502.044 948.46625,500.564 945.28425,500.564 C941.14025,500.564 933.29625,502.71 927.15425,502.414 C926.41425,502.414 926.19225,502.71 926.34025,503.302 C926.71025,504.782 927.52425,506.262 929.22625,507.076 L929.22625,507.076 Z M956.92075,507.076 C950.40875,517.658 942.63875,532.162 940.41875,538.674 C938.86475,543.262 939.60475,545.63 941.01075,546.814 C941.52875,547.258 941.97275,547.258 942.26875,546.518 C944.41475,541.56 947.15275,536.01 949.96475,530.534 C954.18275,529.498 959.88075,528.388 963.58075,528.462 C964.46875,528.462 964.61675,528.018 964.39475,527.352 C963.72875,525.132 961.87875,523.578 958.17875,523.8 C956.84675,523.874 955.14475,524.022 953.22075,524.392 C956.84675,517.732 960.32475,511.738 962.91475,507.52 C967.42875,506.854 972.60875,505.374 978.15875,505.448 C979.12075,505.448 979.26875,504.93 979.04675,504.338 C978.08475,502.044 976.16075,500.564 972.97875,500.564 C968.83475,500.564 960.99075,502.71 954.84875,502.414 C954.10875,502.414 953.88675,502.71 954.03475,503.302 C954.40475,504.782 955.21875,506.262 956.92075,507.076 L956.92075,507.076 Z M984.91125,507.15 C978.69525,516.77 971.29525,530.534 967.89125,539.636 C967.15125,541.634 967.15125,542.596 967.81725,543.854 C968.33525,544.816 968.77925,545.926 969.37125,546.592 C970.25925,547.702 971.07325,547.702 972.47925,547.332 C976.62325,546.222 984.68925,544.298 988.83325,544.372 C989.72125,544.372 989.79525,543.928 989.57325,543.262 C988.75925,541.042 986.90925,539.858 983.28325,540.006 C980.24925,540.154 975.36525,541.19 971.81325,542.3 C973.36725,538.822 975.36525,534.752 977.51125,530.608 C981.65525,529.572 987.20525,528.536 991.20125,528.536 C992.16325,528.536 992.16325,528.092 991.94125,527.426 C991.20125,525.132 989.57325,523.948 985.87325,524.096 C984.54125,524.17 982.61725,524.318 980.61925,524.688 C984.24525,518.102 987.87125,511.664 990.83125,507.224 C995.34525,506.484 1000.52525,505.152 1005.85325,505.226 C1006.74125,505.374 1006.88925,504.856 1006.66725,504.264 C1005.77925,501.822 1004.15125,500.564 1001.04325,500.638 C996.89925,500.712 988.75925,502.858 982.61725,502.488 C981.87725,502.414 981.65525,502.71 981.80325,503.376 C982.24725,504.93 983.06125,506.41 984.91125,507.15 L984.91125,507.15 Z M1012.97575,507.15 C1006.75975,516.77 999.35975,530.534 995.95575,539.636 C995.21575,541.634 995.21575,542.596 995.88175,543.854 C996.39975,544.816 996.84375,545.926 997.43575,546.592 C998.32375,547.702 999.13775,547.702 1000.54375,547.332 C1004.68775,546.222 1012.75375,544.298 1016.89775,544.372 C1017.78575,544.372 1017.85975,543.928 1017.63775,543.262 C1016.82375,541.042 1014.97375,539.858 1011.34775,540.006 C1008.31375,540.154 1003.42975,541.19 999.87775,542.3 C1001.43175,538.822 1003.42975,534.752 1005.57575,530.608 C1009.71975,529.572 1015.26975,528.536 1019.26575,528.536 C1020.22775,528.536 1020.22775,528.092 1020.00575,527.426 C1019.26575,525.132 1017.63775,523.948 1013.93775,524.096 C1012.60575,524.17 1010.68175,524.318 1008.68375,524.688 C1012.30975,518.102 1015.93575,511.664 1018.89575,507.224 C1023.40975,506.484 1028.58975,505.152 1033.91775,505.226 C1034.80575,505.374 1034.95375,504.856 1034.73175,504.264 C1033.84375,501.822 1032.21575,500.564 1029.10775,500.638 C1024.96375,500.712 1016.82375,502.858 1010.68175,502.488 C1009.94175,502.414 1009.71975,502.71 1009.86775,503.376 C1010.31175,504.93 1011.12575,506.41 1012.97575,507.15 L1012.97575,507.15 Z M1024.90825,542.818 C1024.09425,544.594 1024.53825,546.74 1026.01825,547.258 C1027.49825,547.776 1029.42225,546.592 1030.23625,544.668 C1031.05025,542.67 1030.60625,540.746 1029.12625,540.228 C1027.64625,539.71 1025.79625,540.82 1024.90825,542.818 L1024.90825,542.818 Z" id="LIFE’S-TOO-SHORT" sketch:type="MSShapeGroup"></path>
        </g>
    </g>
</svg>